<svg width="361" height="318" viewBox="0 0 361 318" fill="none" xmlns="http://www.w3.org/2000/svg">
<rect width="360" height="318" transform="translate(0.149902)" fill="white"/>
<rect x="0.149902" y="145" width="104" height="28" rx="8" stroke="#666666" stroke-width="0.3" stroke-linecap="round"/>
<path d="M35.7286 162.961C35.7286 163.002 35.7195 163.045 35.7013 163.091C35.601 163.36 35.421 163.578 35.1612 163.747C34.9015 163.916 34.6235 164 34.3272 164H32.9601C32.5636 164 32.2332 163.859 31.9688 163.576C31.7182 163.307 31.5929 162.988 31.5929 162.619C31.5929 162.236 31.7364 161.91 32.0235 161.642L34.8058 159.03C34.947 158.898 35.0177 158.736 35.0177 158.545C35.0177 158.358 34.9516 158.196 34.8194 158.06C34.6918 157.918 34.5278 157.848 34.3272 157.848H32.9601C32.8142 157.848 32.6684 157.891 32.5226 157.978C32.3813 158.064 32.2856 158.174 32.2354 158.306C32.1762 158.456 32.0714 158.531 31.921 158.531C31.684 158.531 31.5655 158.422 31.5655 158.203C31.5655 158.162 31.5746 158.119 31.5929 158.073C31.6931 157.809 31.8731 157.592 32.1329 157.424C32.3927 157.251 32.6684 157.164 32.9601 157.164H34.3272C34.7283 157.164 35.061 157.305 35.3253 157.588C35.5759 157.861 35.7013 158.18 35.7013 158.545C35.7013 158.928 35.5577 159.254 35.2706 159.522L32.4884 162.134C32.3471 162.266 32.2765 162.428 32.2765 162.619C32.2765 162.806 32.338 162.965 32.461 163.098C32.5932 163.243 32.7595 163.316 32.9601 163.316H34.3272C34.7009 163.316 34.9448 163.164 35.0587 162.858C35.1179 162.708 35.2228 162.633 35.3731 162.633C35.6101 162.633 35.7286 162.742 35.7286 162.961ZM41.8632 163.658C41.8632 163.886 41.7492 164 41.5214 164C41.2935 164 41.1796 163.886 41.1796 163.658V157.848H39.744L38.4384 163.733C38.3974 163.911 38.288 164 38.1103 164C37.8778 164 37.7616 163.891 37.7616 163.672C37.7616 163.645 37.7639 163.615 37.7685 163.583L39.1356 157.431C39.1767 157.253 39.2883 157.164 39.4706 157.164H41.5214C41.7492 157.164 41.8632 157.278 41.8632 157.506V163.658ZM47.2731 162.633V157.848H45.2224C45.0355 157.848 44.8737 157.916 44.737 158.053C44.6048 158.185 44.5388 158.344 44.5388 158.531V162.633C44.5388 162.82 44.6048 162.981 44.737 163.118C44.8737 163.25 45.0355 163.316 45.2224 163.316H46.5896C46.7764 163.316 46.9359 163.25 47.0681 163.118C47.2048 162.981 47.2731 162.82 47.2731 162.633ZM48.6677 163.665C48.6677 163.902 48.556 164.021 48.3327 164.021C48.1368 164.021 47.8975 163.861 47.6149 163.542C47.3461 163.847 47.0043 164 46.5896 164H45.2224C44.8441 164 44.5205 163.868 44.2517 163.604C43.9873 163.335 43.8552 163.011 43.8552 162.633V158.531C43.8552 158.158 43.9896 157.836 44.2585 157.567C44.5274 157.299 44.8487 157.164 45.2224 157.164H47.6149C47.8428 157.164 47.9567 157.278 47.9567 157.506V162.646C47.9567 162.988 48.1117 163.221 48.4216 163.344C48.5856 163.408 48.6677 163.515 48.6677 163.665ZM54.2007 162.633C54.2007 163.007 54.0662 163.328 53.7974 163.597C53.533 163.866 53.2095 164 52.8267 164H51.4731C51.0903 164 50.7645 163.866 50.4956 163.597C50.2313 163.328 50.0991 163.007 50.0991 162.633V155.797C50.0991 155.368 50.2404 155.029 50.5229 154.778C50.7782 154.55 51.0903 154.437 51.4595 154.437C51.8332 154.437 52.1476 154.55 52.4028 154.778C52.6854 155.029 52.8267 155.368 52.8267 155.797C52.8267 156.12 52.7241 156.403 52.519 156.645C52.3413 156.79 52.134 156.964 51.897 157.164H52.8267C53.2095 157.164 53.533 157.299 53.7974 157.567C54.0662 157.832 54.2007 158.153 54.2007 158.531V162.633ZM52.1499 155.797C52.1499 155.578 52.0815 155.41 51.9448 155.291C51.8127 155.173 51.6532 155.113 51.4663 155.113C51.2795 155.113 51.1222 155.17 50.9946 155.284C50.8534 155.407 50.7827 155.578 50.7827 155.797V157.164C51.2521 156.863 51.6235 156.576 51.897 156.303C52.0656 156.134 52.1499 155.965 52.1499 155.797ZM53.5171 162.633V158.531C53.5171 158.344 53.4487 158.185 53.312 158.053C53.1799 157.916 53.0181 157.848 52.8267 157.848H51.4731C51.2817 157.848 51.1177 157.916 50.981 158.053C50.8488 158.185 50.7827 158.344 50.7827 158.531V162.633C50.7827 162.82 50.8488 162.981 50.981 163.118C51.1177 163.25 51.2817 163.316 51.4731 163.316H52.8267C53.0181 163.316 53.1799 163.25 53.312 163.118C53.4487 162.981 53.5171 162.82 53.5171 162.633ZM60.3694 163.658C60.3694 163.886 60.2555 164 60.0276 164C59.7998 164 59.6858 163.886 59.6858 163.658V160.924H56.9515V163.658C56.9515 163.886 56.8375 164 56.6097 164C56.3818 164 56.2679 163.886 56.2679 163.658V157.506C56.2679 157.278 56.3818 157.164 56.6097 157.164C56.8375 157.164 56.9515 157.278 56.9515 157.506V160.24H59.6858V157.506C59.6858 157.278 59.7998 157.164 60.0276 157.164C60.2555 157.164 60.3694 157.278 60.3694 157.506V163.658ZM65.7794 162.633V157.848H63.7286C63.5418 157.848 63.38 157.916 63.2433 158.053C63.1111 158.185 63.045 158.344 63.045 158.531V162.633C63.045 162.82 63.1111 162.981 63.2433 163.118C63.38 163.25 63.5418 163.316 63.7286 163.316H65.0958C65.2827 163.316 65.4422 163.25 65.5743 163.118C65.711 162.981 65.7794 162.82 65.7794 162.633ZM67.1739 163.665C67.1739 163.902 67.0623 164.021 66.839 164.021C66.643 164.021 66.4037 163.861 66.1212 163.542C65.8523 163.847 65.5105 164 65.0958 164H63.7286C63.3504 164 63.0268 163.868 62.7579 163.604C62.4936 163.335 62.3614 163.011 62.3614 162.633V158.531C62.3614 158.158 62.4959 157.836 62.7647 157.567C63.0336 157.299 63.3549 157.164 63.7286 157.164H66.1212C66.3491 157.164 66.463 157.278 66.463 157.506V162.646C66.463 162.988 66.6179 163.221 66.9278 163.344C67.0919 163.408 67.1739 163.515 67.1739 163.665ZM72.0233 160.24V157.848H69.9726C69.7857 157.848 69.6239 157.916 69.4872 158.053C69.355 158.185 69.289 158.344 69.289 158.531V159.557C69.289 159.743 69.355 159.905 69.4872 160.042C69.6239 160.174 69.7857 160.24 69.9726 160.24H72.0233ZM72.7069 163.658C72.7069 163.886 72.593 164 72.3651 164C72.1373 164 72.0233 163.886 72.0233 163.658V160.924H70.8544L69.2479 163.822C69.1796 163.941 69.0839 164 68.9608 164C68.7193 164 68.5985 163.888 68.5985 163.665C68.5985 163.61 68.6145 163.553 68.6464 163.494L70.0751 160.924H69.9726C69.5943 160.924 69.2707 160.792 69.0019 160.527C68.7375 160.258 68.6054 159.935 68.6054 159.557V158.531C68.6054 158.158 68.7375 157.836 69.0019 157.567C69.2707 157.299 69.5943 157.164 69.9726 157.164H72.3651C72.593 157.164 72.7069 157.278 72.7069 157.506V163.658Z" fill="#666666"/>
<rect x="0.149902" y="97" width="104" height="28" rx="8" stroke="#666666" stroke-width="0.3" stroke-linecap="round" stroke-dasharray="2 2"/>
<path d="M29.5257 114.633C29.5257 115.011 29.3912 115.335 29.1224 115.604C28.858 115.868 28.5368 116 28.1585 116H26.7913C26.4131 116 26.0895 115.868 25.8206 115.604C25.5563 115.335 25.4241 115.011 25.4241 114.633V110.531C25.4241 110.158 25.5586 109.836 25.8274 109.567C26.0963 109.299 26.4176 109.164 26.7913 109.164H28.1585C28.5322 109.164 28.8535 109.299 29.1224 109.567C29.3912 109.836 29.5257 110.158 29.5257 110.531V114.633ZM28.8421 114.633V110.531C28.8421 110.344 28.7737 110.185 28.637 110.053C28.5049 109.916 28.3453 109.848 28.1585 109.848H26.7913C26.6045 109.848 26.4427 109.916 26.306 110.053C26.1738 110.185 26.1077 110.344 26.1077 110.531V114.633C26.1077 114.82 26.1738 114.981 26.306 115.118C26.4427 115.25 26.6045 115.316 26.7913 115.316H28.1585C28.3453 115.316 28.5049 115.25 28.637 115.118C28.7737 114.981 28.8421 114.82 28.8421 114.633ZM35.6944 115.658C35.6944 115.886 35.5805 116 35.3526 116C35.1248 116 35.0108 115.886 35.0108 115.658V112.924H32.2765V115.658C32.2765 115.886 32.1625 116 31.9347 116C31.7068 116 31.5929 115.886 31.5929 115.658V109.506C31.5929 109.278 31.7068 109.164 31.9347 109.164C32.1625 109.164 32.2765 109.278 32.2765 109.506V112.24H35.0108V109.506C35.0108 109.278 35.1248 109.164 35.3526 109.164C35.5805 109.164 35.6944 109.278 35.6944 109.506V115.658ZM41.1796 114.633V110.531C41.1796 110.344 41.1112 110.185 40.9745 110.053C40.8424 109.916 40.6806 109.848 40.4892 109.848H39.1356C38.9442 109.848 38.7802 109.916 38.6435 110.053C38.5113 110.185 38.4452 110.344 38.4452 110.531V114.633C38.4452 114.82 38.5113 114.981 38.6435 115.118C38.7802 115.25 38.9442 115.316 39.1356 115.316H40.4892C40.6806 115.316 40.8424 115.25 40.9745 115.118C41.1112 114.981 41.1796 114.82 41.1796 114.633ZM41.8632 114.633C41.8632 115.007 41.7287 115.328 41.4599 115.597C41.1955 115.866 40.872 116 40.4892 116H39.1356C38.7528 116 38.427 115.866 38.1581 115.597C37.8938 115.328 37.7616 115.007 37.7616 114.633V110.531C37.7616 110.153 37.8938 109.832 38.1581 109.567C38.427 109.299 38.7528 109.164 39.1356 109.164H40.0653L37.8642 107.018C37.7639 106.922 37.7138 106.822 37.7138 106.717C37.7138 106.525 37.8437 106.43 38.1034 106.43H41.5214C41.7493 106.43 41.8632 106.544 41.8632 106.771C41.8632 106.999 41.7493 107.113 41.5214 107.113H38.9442L41.4804 109.581C41.7356 109.836 41.8632 110.153 41.8632 110.531V114.633ZM48.0319 114.633C48.0319 115.011 47.8975 115.335 47.6286 115.604C47.3643 115.868 47.043 116 46.6647 116H45.2976C44.9193 116 44.5957 115.868 44.3269 115.604C44.0625 115.335 43.9304 115.011 43.9304 114.633V110.531C43.9304 110.158 44.0648 109.836 44.3337 109.567C44.6026 109.299 44.9239 109.164 45.2976 109.164H46.6647C47.0384 109.164 47.3597 109.299 47.6286 109.567C47.8975 109.836 48.0319 110.158 48.0319 110.531V114.633ZM47.3483 114.633V110.531C47.3483 110.344 47.28 110.185 47.1433 110.053C47.0111 109.916 46.8516 109.848 46.6647 109.848H45.2976C45.1107 109.848 44.9489 109.916 44.8122 110.053C44.68 110.185 44.614 110.344 44.614 110.531V114.633C44.614 114.82 44.68 114.981 44.8122 115.118C44.9489 115.25 45.1107 115.316 45.2976 115.316H46.6647C46.8516 115.316 47.0111 115.25 47.1433 115.118C47.28 114.981 47.3483 114.82 47.3483 114.633ZM50.7827 115.323H52.8403C53.0272 115.323 53.1867 115.255 53.3188 115.118C53.451 114.981 53.5171 114.82 53.5171 114.633V110.524C53.5171 110.342 53.4487 110.185 53.312 110.053C53.1799 109.916 53.0226 109.848 52.8403 109.848H50.7827V115.323ZM50.7827 116.007V118.393C50.7827 118.62 50.6688 118.734 50.4409 118.734C50.2131 118.734 50.0991 118.62 50.0991 118.393V109.506C50.0991 109.278 50.2131 109.164 50.4409 109.164H52.8403C53.214 109.164 53.533 109.299 53.7974 109.567C54.0662 109.832 54.2007 110.151 54.2007 110.524V114.633C54.2007 115.007 54.0662 115.33 53.7974 115.604C53.533 115.872 53.214 116.007 52.8403 116.007H50.7827ZM60.3694 114.633C60.3694 115.007 60.235 115.328 59.9661 115.597C59.7018 115.866 59.3782 116 58.9954 116H57.6419C57.2591 116 56.9332 115.866 56.6644 115.597C56.4 115.328 56.2679 115.007 56.2679 114.633V110.531C56.2679 110.153 56.4 109.832 56.6644 109.567C56.9332 109.299 57.2591 109.164 57.6419 109.164H59.6858V107.797C59.6858 107.605 59.6175 107.444 59.4808 107.312C59.3486 107.179 59.1868 107.113 58.9954 107.113H56.6097C56.3818 107.113 56.2679 106.999 56.2679 106.771C56.2679 106.544 56.3818 106.43 56.6097 106.43H58.9954C59.3737 106.43 59.6972 106.564 59.9661 106.833C60.235 107.102 60.3694 107.423 60.3694 107.797V114.633ZM59.6858 114.633V109.848H57.6419C57.4505 109.848 57.2864 109.916 57.1497 110.053C57.0175 110.185 56.9515 110.344 56.9515 110.531V114.633C56.9515 114.82 57.0175 114.981 57.1497 115.118C57.2864 115.25 57.4505 115.316 57.6419 115.316H58.9954C59.1868 115.316 59.3486 115.25 59.4808 115.118C59.6175 114.981 59.6858 114.82 59.6858 114.633ZM66.5382 115.658C66.5382 115.886 66.4243 116 66.1964 116H63.8038C63.4256 116 63.102 115.868 62.8331 115.604C62.5688 115.335 62.4366 115.011 62.4366 114.633V109.506C62.4366 109.278 62.5506 109.164 62.7784 109.164C63.0063 109.164 63.1202 109.278 63.1202 109.506V114.633C63.1202 114.82 63.1863 114.981 63.3185 115.118C63.4552 115.25 63.617 115.316 63.8038 115.316H65.8546V109.506C65.8546 109.278 65.9685 109.164 66.1964 109.164C66.4243 109.164 66.5382 109.278 66.5382 109.506V115.658ZM72.7069 115.658C72.7069 115.886 72.593 116 72.3651 116C72.1373 116 72.0233 115.886 72.0233 115.658V112.924H69.289V115.658C69.289 115.886 69.175 116 68.9472 116C68.7193 116 68.6054 115.886 68.6054 115.658V109.506C68.6054 109.278 68.7193 109.164 68.9472 109.164C69.175 109.164 69.289 109.278 69.289 109.506V112.24H72.0233V109.506C72.0233 109.278 72.1373 109.164 72.3651 109.164C72.593 109.164 72.7069 109.278 72.7069 109.506V115.658ZM78.9099 114.961C78.9099 115.002 78.9007 115.045 78.8825 115.091C78.7823 115.36 78.6022 115.578 78.3425 115.747C78.0827 115.916 77.8047 116 77.5085 116H76.1413C75.7448 116 75.4144 115.859 75.1501 115.576C74.8994 115.307 74.7741 114.988 74.7741 114.619C74.7741 114.236 74.9177 113.91 75.2048 113.642L77.987 111.03C78.1283 110.898 78.1989 110.736 78.1989 110.545C78.1989 110.358 78.1328 110.196 78.0007 110.06C77.8731 109.918 77.709 109.848 77.5085 109.848H76.1413C75.9955 109.848 75.8496 109.891 75.7038 109.978C75.5625 110.064 75.4668 110.174 75.4167 110.306C75.3575 110.456 75.2526 110.531 75.1022 110.531C74.8653 110.531 74.7468 110.422 74.7468 110.203C74.7468 110.162 74.7559 110.119 74.7741 110.073C74.8744 109.809 75.0544 109.592 75.3142 109.424C75.5739 109.251 75.8496 109.164 76.1413 109.164H77.5085C77.9095 109.164 78.2422 109.305 78.5065 109.588C78.7572 109.861 78.8825 110.18 78.8825 110.545C78.8825 110.928 78.739 111.254 78.4519 111.522L75.6696 114.134C75.5284 114.266 75.4577 114.428 75.4577 114.619C75.4577 114.806 75.5192 114.965 75.6423 115.098C75.7744 115.243 75.9408 115.316 76.1413 115.316H77.5085C77.8822 115.316 78.126 115.164 78.2399 114.858C78.2992 114.708 78.404 114.633 78.5544 114.633C78.7914 114.633 78.9099 114.742 78.9099 114.961Z" fill="#666666"/>
<rect x="0.149902" y="49" width="104" height="28" rx="8" stroke="#666666" stroke-width="0.3" stroke-linecap="round"/>
<path d="M18.5718 67.3232H20.6294C20.8162 67.3232 20.9757 67.2549 21.1079 67.1182C21.2401 66.9814 21.3062 66.8197 21.3062 66.6328V62.5244C21.3062 62.3421 21.2378 62.1849 21.1011 62.0527C20.9689 61.916 20.8117 61.8477 20.6294 61.8477H18.5718V67.3232ZM18.5718 68.0068V70.3926C18.5718 70.6204 18.4578 70.7344 18.23 70.7344C18.0021 70.7344 17.8882 70.6204 17.8882 70.3926V61.5059C17.8882 61.278 18.0021 61.1641 18.23 61.1641H20.6294C21.0031 61.1641 21.3221 61.2985 21.5864 61.5674C21.8553 61.8317 21.9897 62.1507 21.9897 62.5244V66.6328C21.9897 67.0065 21.8553 67.3301 21.5864 67.6035C21.3221 67.8724 21.0031 68.0068 20.6294 68.0068H18.5718ZM24.7405 64.2471H27.4749V62.5381C27.4749 62.3512 27.4065 62.1917 27.2698 62.0596C27.1377 61.9229 26.9782 61.8545 26.7913 61.8545H25.4173C25.2304 61.8545 25.0709 61.9229 24.9388 62.0596C24.8066 62.1917 24.7405 62.3512 24.7405 62.5381V64.2471ZM24.7405 64.9238V66.6328C24.7405 66.8197 24.8066 66.9814 24.9388 67.1182C25.0709 67.2503 25.2304 67.3164 25.4173 67.3164H27.8099C28.0377 67.3164 28.1517 67.4303 28.1517 67.6582C28.1517 67.8861 28.0377 68 27.8099 68H25.4173C25.039 68 24.7177 67.8678 24.4534 67.6035C24.1891 67.3346 24.0569 67.0111 24.0569 66.6328V62.5381C24.0569 62.1644 24.1891 61.8431 24.4534 61.5742C24.7223 61.3053 25.0436 61.1709 25.4173 61.1709H26.7913C27.1696 61.1709 27.4909 61.3053 27.7552 61.5742C28.0241 61.8385 28.1585 62.1598 28.1585 62.5381V64.582C28.1585 64.8099 28.0423 64.9238 27.8099 64.9238H24.7405ZM34.3614 66.9609C34.3614 67.002 34.3523 67.0452 34.3341 67.0908C34.2338 67.3597 34.0538 67.5785 33.794 67.7471C33.5343 67.9157 33.2563 68 32.9601 68H31.5929C31.1964 68 30.866 67.8587 30.6017 67.5762C30.351 67.3073 30.2257 66.9883 30.2257 66.6191C30.2257 66.2363 30.3692 65.9105 30.6563 65.6416L33.4386 63.0303C33.5798 62.8981 33.6505 62.7363 33.6505 62.5449C33.6505 62.3581 33.5844 62.1963 33.4522 62.0596C33.3246 61.9183 33.1606 61.8477 32.9601 61.8477H31.5929C31.447 61.8477 31.3012 61.891 31.1554 61.9775C31.0141 62.0641 30.9184 62.1735 30.8683 62.3057C30.809 62.4561 30.7042 62.5312 30.5538 62.5312C30.3168 62.5312 30.1983 62.4219 30.1983 62.2031C30.1983 62.1621 30.2075 62.1188 30.2257 62.0732C30.3259 61.8089 30.506 61.5924 30.7657 61.4238C31.0255 61.2507 31.3012 61.1641 31.5929 61.1641H32.9601C33.3611 61.1641 33.6938 61.3053 33.9581 61.5879C34.2088 61.8613 34.3341 62.1803 34.3341 62.5449C34.3341 62.9277 34.1905 63.2536 33.9034 63.5225L31.1212 66.1338C30.9799 66.266 30.9093 66.4277 30.9093 66.6191C30.9093 66.806 30.9708 66.9655 31.0938 67.0977C31.226 67.2435 31.3923 67.3164 31.5929 67.3164H32.9601C33.3338 67.3164 33.5776 67.1637 33.6915 66.8584C33.7507 66.708 33.8556 66.6328 34.006 66.6328C34.2429 66.6328 34.3614 66.7422 34.3614 66.9609ZM40.496 67.6582C40.496 67.8861 40.3821 68 40.1542 68H37.7616C37.3834 68 37.0598 67.8678 36.7909 67.6035C36.5266 67.3346 36.3944 67.0111 36.3944 66.6328V61.5059C36.3944 61.278 36.5084 61.1641 36.7362 61.1641C36.9641 61.1641 37.078 61.278 37.078 61.5059V66.6328C37.078 66.8197 37.1441 66.9814 37.2763 67.1182C37.413 67.2503 37.5748 67.3164 37.7616 67.3164H39.8124V61.5059C39.8124 61.278 39.9263 61.1641 40.1542 61.1641C40.3821 61.1641 40.496 61.278 40.496 61.5059V67.6582ZM46.3229 68H43.9304C43.5521 68 43.2285 67.8678 42.9597 67.6035C42.6953 67.3346 42.5632 67.0111 42.5632 66.6328V62.5312C42.5632 62.1576 42.6976 61.8363 42.9665 61.5674C43.2354 61.2985 43.5567 61.1641 43.9304 61.1641H46.3229C46.5508 61.1641 46.6647 61.278 46.6647 61.5059C46.6647 61.7337 46.5508 61.8477 46.3229 61.8477H43.9304C43.7435 61.8477 43.5817 61.916 43.445 62.0527C43.3129 62.1849 43.2468 62.3444 43.2468 62.5312V66.6328C43.2468 66.8197 43.3129 66.9814 43.445 67.1182C43.5817 67.2503 43.7435 67.3164 43.9304 67.3164H46.3229C46.5508 67.3164 46.6647 67.4303 46.6647 67.6582C46.6647 67.8861 46.5508 68 46.3229 68ZM51.4663 61.8477H49.4155V67.6582C49.4155 67.8861 49.3016 68 49.0737 68C48.8459 68 48.7319 67.8861 48.7319 67.6582V61.5059C48.7319 61.278 48.8459 61.1641 49.0737 61.1641H53.5171C53.8908 61.1641 54.2121 61.2985 54.481 61.5674C54.7498 61.8363 54.8843 62.1576 54.8843 62.5312V67.6582C54.8843 67.8861 54.7703 68 54.5425 68C54.3146 68 54.2007 67.8861 54.2007 67.6582V62.5312C54.2007 62.3444 54.1323 62.1849 53.9956 62.0527C53.8634 61.916 53.7039 61.8477 53.5171 61.8477H52.1499V67.6582C52.1499 67.8861 52.036 68 51.8081 68C51.5802 68 51.4663 67.8861 51.4663 67.6582V61.8477ZM57.6351 67.3232H59.6927C59.8795 67.3232 60.039 67.2549 60.1712 67.1182C60.3034 66.9814 60.3694 66.8197 60.3694 66.6328V62.5244C60.3694 62.3421 60.3011 62.1849 60.1644 62.0527C60.0322 61.916 59.875 61.8477 59.6927 61.8477H57.6351V67.3232ZM57.6351 68.0068V70.3926C57.6351 70.6204 57.5211 70.7344 57.2933 70.7344C57.0654 70.7344 56.9515 70.6204 56.9515 70.3926V61.5059C56.9515 61.278 57.0654 61.1641 57.2933 61.1641H59.6927C60.0664 61.1641 60.3854 61.2985 60.6497 61.5674C60.9186 61.8317 61.053 62.1507 61.053 62.5244V66.6328C61.053 67.0065 60.9186 67.3301 60.6497 67.6035C60.3854 67.8724 60.0664 68.0068 59.6927 68.0068H57.6351ZM66.463 66.6328V61.8477H64.4122C64.2254 61.8477 64.0636 61.916 63.9269 62.0527C63.7947 62.1849 63.7286 62.3444 63.7286 62.5312V66.6328C63.7286 66.8197 63.7947 66.9814 63.9269 67.1182C64.0636 67.2503 64.2254 67.3164 64.4122 67.3164H65.7794C65.9662 67.3164 66.1258 67.2503 66.2579 67.1182C66.3946 66.9814 66.463 66.8197 66.463 66.6328ZM67.8575 67.665C67.8575 67.902 67.7459 68.0205 67.5226 68.0205C67.3266 68.0205 67.0873 67.861 66.8048 67.542C66.5359 67.8473 66.1941 68 65.7794 68H64.4122C64.034 68 63.7104 67.8678 63.4415 67.6035C63.1772 67.3346 63.045 67.0111 63.045 66.6328V62.5312C63.045 62.1576 63.1795 61.8363 63.4483 61.5674C63.7172 61.2985 64.0385 61.1641 64.4122 61.1641H66.8048C67.0327 61.1641 67.1466 61.278 67.1466 61.5059V66.6465C67.1466 66.9883 67.3015 67.2207 67.6114 67.3438C67.7755 67.4076 67.8575 67.5146 67.8575 67.665ZM74.081 69.0254C74.081 69.2533 73.967 69.3672 73.7392 69.3672C73.5113 69.3672 73.3974 69.2533 73.3974 69.0254V68.0068H70.6562C70.2779 68.0068 69.9543 67.8747 69.6854 67.6104C69.4211 67.3415 69.289 67.0179 69.289 66.6396V61.5059C69.289 61.278 69.4029 61.1641 69.6308 61.1641C69.8586 61.1641 69.9726 61.278 69.9726 61.5059V66.6396C69.9726 66.8265 70.0386 66.9883 70.1708 67.125C70.3075 67.2572 70.4693 67.3232 70.6562 67.3232H72.7138V61.5059C72.7138 61.278 72.8277 61.1641 73.0556 61.1641C73.2834 61.1641 73.3974 61.278 73.3974 61.5059V67.3232H73.7392C73.967 67.3232 74.081 67.4372 74.081 67.665V69.0254ZM80.2429 67.6582C80.2429 67.8861 80.1289 68 79.9011 68H77.5085C77.1302 68 76.8067 67.8678 76.5378 67.6035C76.2735 67.3346 76.1413 67.0111 76.1413 66.6328V61.5059C76.1413 61.278 76.2552 61.1641 76.4831 61.1641C76.711 61.1641 76.8249 61.278 76.8249 61.5059V66.6328C76.8249 66.8197 76.891 66.9814 77.0231 67.1182C77.1599 67.2503 77.3216 67.3164 77.5085 67.3164H79.5593V61.5059C79.5593 61.278 79.6732 61.1641 79.9011 61.1641C80.1289 61.1641 80.2429 61.278 80.2429 61.5059V67.6582ZM85.728 64.2402V61.8477H83.6772C83.4904 61.8477 83.3286 61.916 83.1919 62.0527C83.0597 62.1849 82.9937 62.3444 82.9937 62.5312V63.5566C82.9937 63.7435 83.0597 63.9053 83.1919 64.042C83.3286 64.1742 83.4904 64.2402 83.6772 64.2402H85.728ZM86.4116 67.6582C86.4116 67.8861 86.2977 68 86.0698 68C85.842 68 85.728 67.8861 85.728 67.6582V64.9238H84.5591L82.9526 67.8223C82.8843 67.9408 82.7886 68 82.6655 68C82.424 68 82.3032 67.8883 82.3032 67.665C82.3032 67.6104 82.3192 67.5534 82.3511 67.4941L83.7798 64.9238H83.6772C83.299 64.9238 82.9754 64.7917 82.7065 64.5273C82.4422 64.2585 82.3101 63.9349 82.3101 63.5566V62.5312C82.3101 62.1576 82.4422 61.8363 82.7065 61.5674C82.9754 61.2985 83.299 61.1641 83.6772 61.1641H86.0698C86.2977 61.1641 86.4116 61.278 86.4116 61.5059V67.6582Z" fill="#666666"/>
<rect x="0.149902" y="241" width="104" height="28" rx="8" stroke="#666666" stroke-width="0.3" stroke-linecap="round"/>
<path d="M44.9476 258.633C44.9476 259.007 44.8131 259.328 44.5442 259.597C44.2799 259.866 43.9563 260 43.5735 260H42.22C41.8372 260 41.5114 259.866 41.2425 259.597C40.9782 259.328 40.846 259.007 40.846 258.633V251.797C40.846 251.368 40.9873 251.029 41.2698 250.778C41.525 250.55 41.8372 250.437 42.2063 250.437C42.58 250.437 42.8945 250.55 43.1497 250.778C43.4323 251.029 43.5735 251.368 43.5735 251.797C43.5735 252.12 43.471 252.403 43.2659 252.645C43.0882 252.79 42.8808 252.964 42.6438 253.164H43.5735C43.9563 253.164 44.2799 253.299 44.5442 253.567C44.8131 253.832 44.9476 254.153 44.9476 254.531V258.633ZM42.8968 251.797C42.8968 251.578 42.8284 251.41 42.6917 251.291C42.5595 251.173 42.4 251.113 42.2132 251.113C42.0263 251.113 41.8691 251.17 41.7415 251.284C41.6002 251.407 41.5296 251.578 41.5296 251.797V253.164C41.999 252.863 42.3704 252.576 42.6438 252.303C42.8125 252.134 42.8968 251.965 42.8968 251.797ZM44.264 258.633V254.531C44.264 254.344 44.1956 254.185 44.0589 254.053C43.9267 253.916 43.7649 253.848 43.5735 253.848H42.22C42.0286 253.848 41.8646 253.916 41.7278 254.053C41.5957 254.185 41.5296 254.344 41.5296 254.531V258.633C41.5296 258.82 41.5957 258.981 41.7278 259.118C41.8646 259.25 42.0286 259.316 42.22 259.316H43.5735C43.7649 259.316 43.9267 259.25 44.0589 259.118C44.1956 258.981 44.264 258.82 44.264 258.633ZM49.4552 256.575L51.0753 259.494C51.1072 259.553 51.1231 259.61 51.1231 259.665C51.1231 259.888 51.0024 260 50.7608 260C50.6378 260 50.5421 259.941 50.4737 259.822L49.0655 257.286L47.6573 259.822C47.589 259.941 47.4933 260 47.3702 260C47.1287 260 47.0079 259.888 47.0079 259.665C47.0079 259.61 47.0239 259.553 47.0558 259.494L48.6759 256.582L47.0558 253.656C47.0239 253.602 47.0079 253.545 47.0079 253.485C47.0079 253.262 47.1287 253.15 47.3702 253.15C47.4978 253.15 47.5935 253.21 47.6573 253.328L49.0655 255.878L50.4737 253.342C50.5421 253.223 50.6378 253.164 50.7608 253.164C51.0024 253.164 51.1231 253.276 51.1231 253.499C51.1231 253.554 51.1072 253.611 51.0753 253.67L49.4552 256.575ZM57.2851 258.633C57.2851 259.011 57.1506 259.335 56.8817 259.604C56.6174 259.868 56.2961 260 55.9179 260H54.5507C54.1724 260 53.8489 259.868 53.58 259.604C53.3157 259.335 53.1835 259.011 53.1835 258.633V254.531C53.1835 254.158 53.3179 253.836 53.5868 253.567C53.8557 253.299 54.177 253.164 54.5507 253.164H55.9179C56.2916 253.164 56.6129 253.299 56.8817 253.567C57.1506 253.836 57.2851 254.158 57.2851 254.531V258.633ZM56.6015 258.633V254.531C56.6015 254.344 56.5331 254.185 56.3964 254.053C56.2642 253.916 56.1047 253.848 55.9179 253.848H54.5507C54.3638 253.848 54.202 253.916 54.0653 254.053C53.9332 254.185 53.8671 254.344 53.8671 254.531V258.633C53.8671 258.82 53.9332 258.981 54.0653 259.118C54.202 259.25 54.3638 259.316 54.5507 259.316H55.9179C56.1047 259.316 56.2642 259.25 56.3964 259.118C56.5331 258.981 56.6015 258.82 56.6015 258.633ZM63.4538 258.633C63.4538 259.007 63.3194 259.328 63.0505 259.597C62.7862 259.866 62.4626 260 62.0798 260H60.7263C60.3435 260 60.0176 259.866 59.7487 259.597C59.4844 259.328 59.3522 259.007 59.3522 258.633V254.531C59.3522 254.153 59.4844 253.832 59.7487 253.567C60.0176 253.299 60.3435 253.164 60.7263 253.164H62.7702V251.797C62.7702 251.605 62.7019 251.444 62.5651 251.312C62.433 251.179 62.2712 251.113 62.0798 251.113H59.694C59.4662 251.113 59.3522 250.999 59.3522 250.771C59.3522 250.544 59.4662 250.43 59.694 250.43H62.0798C62.458 250.43 62.7816 250.564 63.0505 250.833C63.3194 251.102 63.4538 251.423 63.4538 251.797V258.633ZM62.7702 258.633V253.848H60.7263C60.5349 253.848 60.3708 253.916 60.2341 254.053C60.1019 254.185 60.0358 254.344 60.0358 254.531V258.633C60.0358 258.82 60.1019 258.981 60.2341 259.118C60.3708 259.25 60.5349 259.316 60.7263 259.316H62.0798C62.2712 259.316 62.433 259.25 62.5651 259.118C62.7019 258.981 62.7702 258.82 62.7702 258.633Z" fill="#666666"/>
<path d="M52.2999 127.8C52.2999 127.717 52.2327 127.65 52.1499 127.65C52.0671 127.65 51.9999 127.717 51.9999 127.8H52.1499H52.2999ZM52.0438 142.306C52.1024 142.364 52.1974 142.364 52.256 142.306L53.2106 141.351C53.2691 141.293 53.2691 141.198 53.2106 141.139C53.152 141.081 53.057 141.081 52.9984 141.139L52.1499 141.988L51.3014 141.139C51.2428 141.081 51.1478 141.081 51.0892 141.139C51.0307 141.198 51.0307 141.293 51.0892 141.351L52.0438 142.306ZM52.1499 127.8H51.9999V142.2H52.1499H52.2999V127.8H52.1499Z" fill="#666666"/>
<path d="M51.9999 238.2C51.9999 238.283 52.0671 238.35 52.1499 238.35C52.2327 238.35 52.2999 238.283 52.2999 238.2H52.1499H51.9999ZM52.256 175.694C52.1974 175.635 52.1024 175.635 52.0438 175.694L51.0892 176.648C51.0307 176.707 51.0307 176.802 51.0892 176.86C51.1478 176.919 51.2428 176.919 51.3014 176.86L52.1499 176.012L52.9984 176.86C53.057 176.919 53.152 176.919 53.2106 176.86C53.2691 176.802 53.2691 176.707 53.2106 176.648L52.256 175.694ZM52.1499 238.2H52.2999V175.8H52.1499H51.9999V238.2H52.1499Z" fill="#666666"/>
<rect x="124.15" y="49" width="96" height="28" rx="8" stroke="#666666" stroke-width="0.3" stroke-linecap="round"/>
<path d="M154.669 67.6582C154.669 67.8861 154.555 68 154.327 68C154.099 68 153.985 67.8861 153.985 67.6582V62.5312C153.985 62.3444 153.917 62.1849 153.78 62.0527C153.648 61.916 153.489 61.8477 153.302 61.8477H151.251V67.6582C151.251 67.8861 151.137 68 150.909 68C150.681 68 150.567 67.8861 150.567 67.6582V61.5059C150.567 61.278 150.681 61.1641 150.909 61.1641H153.302C153.676 61.1641 153.997 61.2985 154.266 61.5674C154.535 61.8363 154.669 62.1576 154.669 62.5312V67.6582ZM157.42 67.3232H159.477C159.664 67.3232 159.824 67.2549 159.956 67.1182C160.088 66.9814 160.154 66.8197 160.154 66.6328V62.5244C160.154 62.3421 160.086 62.1849 159.949 62.0527C159.817 61.916 159.66 61.8477 159.477 61.8477H157.42V67.3232ZM157.42 68.0068V70.3926C157.42 70.6204 157.306 70.7344 157.078 70.7344C156.85 70.7344 156.736 70.6204 156.736 70.3926V61.5059C156.736 61.278 156.85 61.1641 157.078 61.1641H159.477C159.851 61.1641 160.17 61.2985 160.434 61.5674C160.703 61.8317 160.838 62.1507 160.838 62.5244V66.6328C160.838 67.0065 160.703 67.3301 160.434 67.6035C160.17 67.8724 159.851 68.0068 159.477 68.0068H157.42ZM167.007 66.6328C167.007 67.0111 166.872 67.3346 166.603 67.6035C166.339 67.8678 166.018 68 165.639 68H164.272C163.894 68 163.57 67.8678 163.301 67.6035C163.037 67.3346 162.905 67.0111 162.905 66.6328V62.5312C162.905 62.1576 163.039 61.8363 163.308 61.5674C163.577 61.2985 163.898 61.1641 164.272 61.1641H165.639C166.013 61.1641 166.334 61.2985 166.603 61.5674C166.872 61.8363 167.007 62.1576 167.007 62.5312V66.6328ZM166.323 66.6328V62.5312C166.323 62.3444 166.255 62.1849 166.118 62.0527C165.986 61.916 165.826 61.8477 165.639 61.8477H164.272C164.085 61.8477 163.924 61.916 163.787 62.0527C163.655 62.1849 163.589 62.3444 163.589 62.5312V66.6328C163.589 66.8197 163.655 66.9814 163.787 67.1182C163.924 67.2503 164.085 67.3164 164.272 67.3164H165.639C165.826 67.3164 165.986 67.2503 166.118 67.1182C166.255 66.9814 166.323 66.8197 166.323 66.6328ZM171.808 67.3164V61.834H171.118C170.744 61.834 170.423 61.9684 170.154 62.2373C169.889 62.5062 169.757 62.8298 169.757 63.208V65.9424C169.757 66.3206 169.889 66.6442 170.154 66.9131C170.423 67.182 170.744 67.3164 171.118 67.3164H171.808ZM174.536 65.9424V63.208C174.536 62.8298 174.401 62.5062 174.132 62.2373C173.868 61.9684 173.549 61.834 173.175 61.834H172.492V67.3164H173.175C173.549 67.3164 173.868 67.182 174.132 66.9131C174.401 66.6442 174.536 66.3206 174.536 65.9424ZM175.219 65.9424C175.219 66.512 175.019 66.9974 174.618 67.3984C174.221 67.7995 173.74 68 173.175 68H172.492V70.3857C172.492 70.6136 172.378 70.7275 172.15 70.7275C171.922 70.7275 171.808 70.6136 171.808 70.3857V68H171.118C170.553 68 170.069 67.7995 169.668 67.3984C169.272 66.9974 169.074 66.512 169.074 65.9424V63.208C169.074 62.6383 169.272 62.153 169.668 61.752C170.069 61.3509 170.553 61.1504 171.118 61.1504H171.808V60.1318C171.808 59.9085 171.922 59.7969 172.15 59.7969C172.378 59.7969 172.492 59.9085 172.492 60.1318V61.1504H173.175C173.74 61.1504 174.221 61.3509 174.618 61.752C175.019 62.153 175.219 62.6383 175.219 63.208V65.9424ZM181.395 67.6582C181.395 67.8861 181.281 68 181.053 68H178.66C178.282 68 177.959 67.8678 177.69 67.6035C177.425 67.3346 177.293 67.0111 177.293 66.6328V61.5059C177.293 61.278 177.407 61.1641 177.635 61.1641C177.863 61.1641 177.977 61.278 177.977 61.5059V66.6328C177.977 66.8197 178.043 66.9814 178.175 67.1182C178.312 67.2503 178.474 67.3164 178.66 67.3164H180.711V61.5059C180.711 61.278 180.825 61.1641 181.053 61.1641C181.281 61.1641 181.395 61.278 181.395 61.5059V67.6582ZM187.564 67.6582C187.564 67.8861 187.45 68 187.222 68C186.994 68 186.88 67.8861 186.88 67.6582V61.8477H185.444L184.139 67.7334C184.098 67.9111 183.988 68 183.811 68C183.578 68 183.462 67.8906 183.462 67.6719C183.462 67.6445 183.464 67.6149 183.469 67.583L184.836 61.4307C184.877 61.2529 184.989 61.1641 185.171 61.1641H187.222C187.45 61.1641 187.564 61.278 187.564 61.5059V67.6582ZM193.732 66.6328C193.732 67.0111 193.598 67.3346 193.329 67.6035C193.065 67.8678 192.743 68 192.365 68H189.973C189.745 68 189.631 67.8861 189.631 67.6582V61.5059C189.631 61.278 189.745 61.1641 189.973 61.1641C190.2 61.1641 190.314 61.278 190.314 61.5059V64.2402H192.365C192.743 64.2402 193.065 64.3747 193.329 64.6436C193.598 64.9124 193.732 65.2337 193.732 65.6074V66.6328ZM193.049 66.6328V65.6074C193.049 65.4206 192.98 65.2611 192.844 65.1289C192.711 64.9922 192.552 64.9238 192.365 64.9238H190.314V67.3164H192.365C192.552 67.3164 192.711 67.2503 192.844 67.1182C192.98 66.9814 193.049 66.8197 193.049 66.6328Z" fill="#666666"/>
<path d="M106.95 158.85C106.867 158.85 106.8 158.917 106.8 159C106.8 159.083 106.867 159.15 106.95 159.15V159V158.85ZM121.456 63.1061C121.514 63.0475 121.514 62.9525 121.456 62.8939L120.501 61.9393C120.443 61.8808 120.348 61.8808 120.289 61.9393C120.23 61.9979 120.23 62.0929 120.289 62.1515L121.138 63L120.289 63.8485C120.23 63.9071 120.23 64.0021 120.289 64.0607C120.348 64.1192 120.443 64.1192 120.501 64.0607L121.456 63.1061ZM114.15 151.8H114.3V70.2H114.15H114V151.8H114.15ZM114.15 70.2H114.3C114.3 66.3064 117.456 63.15 121.35 63.15V63V62.85C117.29 62.85 114 66.1407 114 70.2H114.15ZM106.95 159V159.15C111.009 159.15 114.3 155.859 114.3 151.8H114.15H114C114 155.694 110.843 158.85 106.95 158.85V159Z" fill="#666666"/>
<rect x="124.15" y="241" width="96" height="28" rx="8" stroke="#666666" stroke-width="0.3" stroke-linecap="round"/>
<path d="M158.437 258.633C158.437 259.007 158.291 259.328 158 259.597C157.712 259.866 157.377 260 156.995 260H155.969C155.678 260 155.411 259.913 155.169 259.74C154.928 259.567 154.762 259.339 154.67 259.057C154.657 259.016 154.65 258.975 154.65 258.934C154.65 258.715 154.768 258.605 155.005 258.605C155.169 258.605 155.277 258.688 155.327 258.852C155.422 259.161 155.637 259.316 155.969 259.316H156.995C157.186 259.316 157.359 259.248 157.514 259.111C157.674 258.975 157.753 258.815 157.753 258.633V257.607C157.753 257.425 157.674 257.266 157.514 257.129C157.359 256.992 157.186 256.924 156.995 256.924H156.311C156.083 256.924 155.969 256.81 155.969 256.582C155.969 256.354 156.083 256.24 156.311 256.24H156.995C157.186 256.24 157.359 256.172 157.514 256.035C157.674 255.898 157.753 255.739 157.753 255.557V254.531C157.753 254.349 157.674 254.189 157.514 254.053C157.359 253.916 157.186 253.848 156.995 253.848H156.311C155.983 253.848 155.766 254.005 155.662 254.319C155.611 254.474 155.509 254.552 155.354 254.552C155.117 254.552 154.999 254.442 154.999 254.224C154.999 254.183 155.005 254.142 155.019 254.101C155.115 253.818 155.279 253.592 155.511 253.424C155.748 253.251 156.015 253.164 156.311 253.164H156.995C157.377 253.164 157.712 253.301 158 253.574C158.291 253.843 158.437 254.162 158.437 254.531V255.557C158.437 255.976 158.282 256.318 157.972 256.582C158.282 256.855 158.437 257.197 158.437 257.607V258.633ZM163.847 258.633V253.848H161.796C161.609 253.848 161.448 253.916 161.311 254.053C161.179 254.185 161.113 254.344 161.113 254.531V258.633C161.113 258.82 161.179 258.981 161.311 259.118C161.448 259.25 161.609 259.316 161.796 259.316H163.163C163.35 259.316 163.51 259.25 163.642 259.118C163.779 258.981 163.847 258.82 163.847 258.633ZM165.242 259.665C165.242 259.902 165.13 260.021 164.907 260.021C164.711 260.021 164.471 259.861 164.189 259.542C163.92 259.847 163.578 260 163.163 260H161.796C161.418 260 161.094 259.868 160.825 259.604C160.561 259.335 160.429 259.011 160.429 258.633V254.531C160.429 254.158 160.563 253.836 160.832 253.567C161.101 253.299 161.422 253.164 161.796 253.164H164.189C164.417 253.164 164.531 253.278 164.531 253.506V258.646C164.531 258.988 164.686 259.221 164.995 259.344C165.159 259.408 165.242 259.515 165.242 259.665ZM170.795 253.533C170.795 253.615 170.763 253.693 170.699 253.766C169.993 254.54 169.287 255.313 168.58 256.083L170.727 259.474C170.763 259.533 170.781 259.594 170.781 259.658C170.781 259.754 170.745 259.836 170.672 259.904C170.599 259.968 170.517 260 170.426 260C170.312 260 170.221 259.948 170.152 259.843L168.108 256.609C167.976 256.76 167.728 257.035 167.363 257.437V259.658C167.363 259.886 167.249 260 167.022 260C166.794 260 166.68 259.886 166.68 259.658V253.506C166.68 253.278 166.794 253.164 167.022 253.164C167.249 253.164 167.363 253.278 167.363 253.506V256.411L170.193 253.301C170.266 253.223 170.348 253.185 170.44 253.185C170.535 253.185 170.617 253.221 170.686 253.294C170.759 253.362 170.795 253.442 170.795 253.533ZM176.184 258.633V253.848H174.134C173.947 253.848 173.785 253.916 173.648 254.053C173.516 254.185 173.45 254.344 173.45 254.531V258.633C173.45 258.82 173.516 258.981 173.648 259.118C173.785 259.25 173.947 259.316 174.134 259.316H175.501C175.688 259.316 175.847 259.25 175.979 259.118C176.116 258.981 176.184 258.82 176.184 258.633ZM177.579 259.665C177.579 259.902 177.467 260.021 177.244 260.021C177.048 260.021 176.809 259.861 176.526 259.542C176.257 259.847 175.916 260 175.501 260H174.134C173.755 260 173.432 259.868 173.163 259.604C172.899 259.335 172.767 259.011 172.767 258.633V254.531C172.767 254.158 172.901 253.836 173.17 253.567C173.439 253.299 173.76 253.164 174.134 253.164H176.526C176.754 253.164 176.868 253.278 176.868 253.506V258.646C176.868 258.988 177.023 259.221 177.333 259.344C177.497 259.408 177.579 259.515 177.579 259.665ZM182.77 258.633C182.77 259.007 182.624 259.328 182.333 259.597C182.046 259.866 181.711 260 181.328 260H180.302C180.011 260 179.744 259.913 179.503 259.74C179.261 259.567 179.095 259.339 179.004 259.057C178.99 259.016 178.983 258.975 178.983 258.934C178.983 258.715 179.102 258.605 179.339 258.605C179.503 258.605 179.61 258.688 179.66 258.852C179.756 259.161 179.97 259.316 180.302 259.316H181.328C181.519 259.316 181.692 259.248 181.847 259.111C182.007 258.975 182.087 258.815 182.087 258.633V257.607C182.087 257.425 182.007 257.266 181.847 257.129C181.692 256.992 181.519 256.924 181.328 256.924H180.644C180.416 256.924 180.302 256.81 180.302 256.582C180.302 256.354 180.416 256.24 180.644 256.24H181.328C181.519 256.24 181.692 256.172 181.847 256.035C182.007 255.898 182.087 255.739 182.087 255.557V254.531C182.087 254.349 182.007 254.189 181.847 254.053C181.692 253.916 181.519 253.848 181.328 253.848H180.644C180.316 253.848 180.1 254.005 179.995 254.319C179.945 254.474 179.842 254.552 179.687 254.552C179.45 254.552 179.332 254.442 179.332 254.224C179.332 254.183 179.339 254.142 179.352 254.101C179.448 253.818 179.612 253.592 179.844 253.424C180.081 253.251 180.348 253.164 180.644 253.164H181.328C181.711 253.164 182.046 253.301 182.333 253.574C182.624 253.843 182.77 254.162 182.77 254.531V255.557C182.77 255.976 182.615 256.318 182.305 256.582C182.615 256.855 182.77 257.197 182.77 257.607V258.633ZM189.623 259.658C189.623 259.886 189.509 260 189.281 260C189.053 260 188.939 259.886 188.939 259.658V253.506C188.939 253.278 189.053 253.164 189.281 253.164C189.509 253.164 189.623 253.278 189.623 253.506V259.658ZM188.255 258.633C188.255 259.011 188.121 259.335 187.852 259.604C187.588 259.868 187.266 260 186.888 260H185.179C184.951 260 184.837 259.886 184.837 259.658V253.506C184.837 253.278 184.951 253.164 185.179 253.164C185.407 253.164 185.521 253.278 185.521 253.506V256.24H186.888C187.266 256.24 187.588 256.375 187.852 256.644C188.121 256.912 188.255 257.234 188.255 257.607V258.633ZM187.572 258.633V257.607C187.572 257.421 187.503 257.261 187.367 257.129C187.235 256.992 187.075 256.924 186.888 256.924H185.521V259.316H186.888C187.075 259.316 187.235 259.25 187.367 259.118C187.503 258.981 187.572 258.82 187.572 258.633Z" fill="#666666"/>
<path d="M106.95 158.85C106.867 158.85 106.8 158.917 106.8 159C106.8 159.083 106.867 159.15 106.95 159.15V159V158.85ZM121.456 255.106C121.514 255.047 121.514 254.953 121.456 254.894L120.501 253.939C120.443 253.881 120.348 253.881 120.289 253.939C120.23 253.998 120.23 254.093 120.289 254.151L121.138 255L120.289 255.849C120.23 255.907 120.23 256.002 120.289 256.061C120.348 256.119 120.443 256.119 120.501 256.061L121.456 255.106ZM114.15 166.2H114V247.8H114.15H114.3V166.2H114.15ZM114.15 247.8H114C114 251.859 117.29 255.15 121.35 255.15V255V254.85C117.456 254.85 114.3 251.694 114.3 247.8H114.15ZM106.95 159V159.15C110.843 159.15 114 162.306 114 166.2H114.15H114.3C114.3 162.141 111.009 158.85 106.95 158.85V159Z" fill="#666666"/>
<rect x="240.15" y="289" width="120" height="28" rx="8" stroke="#666666" stroke-width="0.3" stroke-linecap="round"/>
<path d="M263.137 308H260.745C260.367 308 260.043 307.868 259.774 307.604C259.51 307.335 259.378 307.011 259.378 306.633V302.531C259.378 302.158 259.512 301.836 259.781 301.567C260.05 301.299 260.371 301.164 260.745 301.164H263.137C263.365 301.164 263.479 301.278 263.479 301.506C263.479 301.734 263.365 301.848 263.137 301.848H260.745C260.558 301.848 260.396 301.916 260.259 302.053C260.127 302.185 260.061 302.344 260.061 302.531V306.633C260.061 306.82 260.127 306.981 260.259 307.118C260.396 307.25 260.558 307.316 260.745 307.316H263.137C263.365 307.316 263.479 307.43 263.479 307.658C263.479 307.886 263.365 308 263.137 308ZM270.332 307.658C270.332 307.886 270.218 308 269.99 308C269.762 308 269.648 307.886 269.648 307.658V302.641L268.226 304.773C268.135 304.906 268.039 304.972 267.939 304.972C267.834 304.972 267.738 304.906 267.652 304.773L266.23 302.641V307.658C266.23 307.886 266.116 308 265.888 308C265.66 308 265.546 307.886 265.546 307.658V301.506C265.546 301.273 265.66 301.157 265.888 301.157C266.011 301.157 266.107 301.21 266.175 301.314L267.939 303.96L269.703 301.314C269.776 301.205 269.871 301.15 269.99 301.15C270.218 301.15 270.332 301.269 270.332 301.506V307.658ZM273.082 304.247H275.817V302.538C275.817 302.351 275.748 302.192 275.612 302.06C275.479 301.923 275.32 301.854 275.133 301.854H273.759C273.572 301.854 273.413 301.923 273.281 302.06C273.148 302.192 273.082 302.351 273.082 302.538V304.247ZM273.082 304.924V306.633C273.082 306.82 273.148 306.981 273.281 307.118C273.413 307.25 273.572 307.316 273.759 307.316H276.152C276.38 307.316 276.493 307.43 276.493 307.658C276.493 307.886 276.38 308 276.152 308H273.759C273.381 308 273.06 307.868 272.795 307.604C272.531 307.335 272.399 307.011 272.399 306.633V302.538C272.399 302.164 272.531 301.843 272.795 301.574C273.064 301.305 273.385 301.171 273.759 301.171H275.133C275.511 301.171 275.833 301.305 276.097 301.574C276.366 301.839 276.5 302.16 276.5 302.538V304.582C276.5 304.81 276.384 304.924 276.152 304.924H273.082ZM282.669 307.658C282.669 307.886 282.555 308 282.327 308C282.099 308 281.985 307.886 281.985 307.658V304.924H279.251V307.658C279.251 307.886 279.137 308 278.909 308C278.681 308 278.567 307.886 278.567 307.658V301.506C278.567 301.278 278.681 301.164 278.909 301.164C279.137 301.164 279.251 301.278 279.251 301.506V304.24H281.985V301.506C281.985 301.278 282.099 301.164 282.327 301.164C282.555 301.164 282.669 301.278 282.669 301.506V307.658ZM288.079 306.633V301.848H286.028C285.841 301.848 285.68 301.916 285.543 302.053C285.411 302.185 285.345 302.344 285.345 302.531V306.633C285.345 306.82 285.411 306.981 285.543 307.118C285.68 307.25 285.841 307.316 286.028 307.316H287.395C287.582 307.316 287.742 307.25 287.874 307.118C288.011 306.981 288.079 306.82 288.079 306.633ZM289.474 307.665C289.474 307.902 289.362 308.021 289.139 308.021C288.943 308.021 288.703 307.861 288.421 307.542C288.152 307.847 287.81 308 287.395 308H286.028C285.65 308 285.326 307.868 285.058 307.604C284.793 307.335 284.661 307.011 284.661 306.633V302.531C284.661 302.158 284.795 301.836 285.064 301.567C285.333 301.299 285.655 301.164 286.028 301.164H288.421C288.649 301.164 288.763 301.278 288.763 301.506V306.646C288.763 306.988 288.918 307.221 289.227 307.344C289.392 307.408 289.474 307.515 289.474 307.665ZM299.466 308H297.074C296.695 308 296.372 307.868 296.103 307.604C295.839 307.335 295.707 307.011 295.707 306.633V302.531C295.707 302.158 295.841 301.836 296.11 301.567C296.379 301.299 296.7 301.164 297.074 301.164H299.466C299.694 301.164 299.808 301.278 299.808 301.506C299.808 301.734 299.694 301.848 299.466 301.848H297.074C296.887 301.848 296.725 301.916 296.588 302.053C296.456 302.185 296.39 302.344 296.39 302.531V306.633C296.39 306.82 296.456 306.981 296.588 307.118C296.725 307.25 296.887 307.316 297.074 307.316H299.466C299.694 307.316 299.808 307.43 299.808 307.658C299.808 307.886 299.694 308 299.466 308ZM304.61 301.848H302.559V307.658C302.559 307.886 302.445 308 302.217 308C301.989 308 301.875 307.886 301.875 307.658V301.506C301.875 301.278 301.989 301.164 302.217 301.164H306.66C307.034 301.164 307.355 301.299 307.624 301.567C307.893 301.836 308.028 302.158 308.028 302.531V307.658C308.028 307.886 307.914 308 307.686 308C307.458 308 307.344 307.886 307.344 307.658V302.531C307.344 302.344 307.276 302.185 307.139 302.053C307.007 301.916 306.847 301.848 306.66 301.848H305.293V307.658C305.293 307.886 305.179 308 304.951 308C304.724 308 304.61 307.886 304.61 307.658V301.848ZM313.438 306.633V301.848H311.387C311.2 301.848 311.038 301.916 310.901 302.053C310.769 302.185 310.703 302.344 310.703 302.531V306.633C310.703 306.82 310.769 306.981 310.901 307.118C311.038 307.25 311.2 307.316 311.387 307.316H312.754C312.941 307.316 313.1 307.25 313.233 307.118C313.369 306.981 313.438 306.82 313.438 306.633ZM314.832 307.665C314.832 307.902 314.72 308.021 314.497 308.021C314.301 308.021 314.062 307.861 313.779 307.542C313.511 307.847 313.169 308 312.754 308H311.387C311.009 308 310.685 307.868 310.416 307.604C310.152 307.335 310.02 307.011 310.02 306.633V302.531C310.02 302.158 310.154 301.836 310.423 301.567C310.692 301.299 311.013 301.164 311.387 301.164H313.779C314.007 301.164 314.121 301.278 314.121 301.506V306.646C314.121 306.988 314.276 307.221 314.586 307.344C314.75 307.408 314.832 307.515 314.832 307.665ZM318.998 301.848H316.947V307.658C316.947 307.886 316.833 308 316.605 308C316.378 308 316.264 307.886 316.264 307.658V301.506C316.264 301.278 316.378 301.164 316.605 301.164H321.049C321.422 301.164 321.744 301.299 322.013 301.567C322.281 301.836 322.416 302.158 322.416 302.531V307.658C322.416 307.886 322.302 308 322.074 308C321.846 308 321.732 307.886 321.732 307.658V302.531C321.732 302.344 321.664 302.185 321.527 302.053C321.395 301.916 321.236 301.848 321.049 301.848H319.682V307.658C319.682 307.886 319.568 308 319.34 308C319.112 308 318.998 307.886 318.998 307.658V301.848ZM328.585 309.36C328.585 309.734 328.45 310.055 328.181 310.324C327.917 310.593 327.598 310.728 327.224 310.728H325.167C324.939 310.728 324.825 310.614 324.825 310.386C324.825 310.158 324.939 310.044 325.167 310.044H327.224C327.411 310.044 327.571 309.976 327.703 309.839C327.835 309.707 327.901 309.547 327.901 309.36V308H325.857C325.474 308 325.148 307.866 324.88 307.597C324.615 307.328 324.483 307.004 324.483 306.626V301.499C324.483 301.271 324.597 301.157 324.825 301.157C325.053 301.157 325.167 301.271 325.167 301.499V306.626C325.167 306.817 325.233 306.981 325.365 307.118C325.502 307.25 325.666 307.316 325.857 307.316H327.901V301.499C327.901 301.271 328.015 301.157 328.243 301.157C328.471 301.157 328.585 301.271 328.585 301.499V309.36ZM334.412 308H332.019C331.641 308 331.317 307.868 331.048 307.604C330.784 307.335 330.652 307.011 330.652 306.633V302.531C330.652 302.158 330.786 301.836 331.055 301.567C331.324 301.299 331.645 301.164 332.019 301.164H334.412C334.639 301.164 334.753 301.278 334.753 301.506C334.753 301.734 334.639 301.848 334.412 301.848H332.019C331.832 301.848 331.67 301.916 331.534 302.053C331.402 302.185 331.335 302.344 331.335 302.531V306.633C331.335 306.82 331.402 306.981 331.534 307.118C331.67 307.25 331.832 307.316 332.019 307.316H334.412C334.639 307.316 334.753 307.43 334.753 307.658C334.753 307.886 334.639 308 334.412 308ZM340.163 306.633V301.848H338.113C337.926 301.848 337.764 301.916 337.627 302.053C337.495 302.185 337.429 302.344 337.429 302.531V306.633C337.429 306.82 337.495 306.981 337.627 307.118C337.764 307.25 337.926 307.316 338.113 307.316H339.48C339.667 307.316 339.826 307.25 339.958 307.118C340.095 306.981 340.163 306.82 340.163 306.633ZM341.558 307.665C341.558 307.902 341.446 308.021 341.223 308.021C341.027 308.021 340.788 307.861 340.505 307.542C340.236 307.847 339.894 308 339.48 308H338.113C337.734 308 337.411 307.868 337.142 307.604C336.878 307.335 336.745 307.011 336.745 306.633V302.531C336.745 302.158 336.88 301.836 337.149 301.567C337.418 301.299 337.739 301.164 338.113 301.164H340.505C340.733 301.164 340.847 301.278 340.847 301.506V306.646C340.847 306.988 341.002 307.221 341.312 307.344C341.476 307.408 341.558 307.515 341.558 307.665Z" fill="#666666"/>
<rect x="240.15" y="1" width="120" height="28" rx="8" stroke="#666666" stroke-width="0.3" stroke-linecap="round"/>
<path d="M268.102 19.6582C268.102 19.8861 267.988 20 267.76 20C267.532 20 267.418 19.8861 267.418 19.6582V14.5312C267.418 14.3444 267.35 14.1849 267.213 14.0527C267.081 13.916 266.921 13.8477 266.734 13.8477H264.684V19.6582C264.684 19.8861 264.57 20 264.342 20C264.114 20 264 19.8861 264 19.6582V13.5059C264 13.278 264.114 13.1641 264.342 13.1641H266.734C267.108 13.1641 267.429 13.2985 267.698 13.5674C267.967 13.8363 268.102 14.1576 268.102 14.5312V19.6582ZM274.27 18.6328C274.27 19.0111 274.136 19.3346 273.867 19.6035C273.603 19.8678 273.281 20 272.903 20H271.536C271.158 20 270.834 19.8678 270.565 19.6035C270.301 19.3346 270.169 19.0111 270.169 18.6328V14.5312C270.169 14.1576 270.303 13.8363 270.572 13.5674C270.841 13.2985 271.162 13.1641 271.536 13.1641H272.903C273.277 13.1641 273.598 13.2985 273.867 13.5674C274.136 13.8363 274.27 14.1576 274.27 14.5312V18.6328ZM273.587 18.6328V14.5312C273.587 14.3444 273.518 14.1849 273.382 14.0527C273.25 13.916 273.09 13.8477 272.903 13.8477H271.536C271.349 13.8477 271.187 13.916 271.051 14.0527C270.919 14.1849 270.852 14.3444 270.852 14.5312V18.6328C270.852 18.8197 270.919 18.9814 271.051 19.1182C271.187 19.2503 271.349 19.3164 271.536 19.3164H272.903C273.09 19.3164 273.25 19.2503 273.382 19.1182C273.518 18.9814 273.587 18.8197 273.587 18.6328ZM280.097 18.6328C280.097 19.0065 279.952 19.3278 279.66 19.5967C279.373 19.8656 279.038 20 278.655 20H277.63C277.338 20 277.071 19.9134 276.83 19.7402C276.588 19.5671 276.422 19.3392 276.331 19.0566C276.317 19.0156 276.31 18.9746 276.31 18.9336C276.31 18.7148 276.429 18.6055 276.666 18.6055C276.83 18.6055 276.937 18.6875 276.987 18.8516C277.083 19.1615 277.297 19.3164 277.63 19.3164H278.655C278.846 19.3164 279.02 19.248 279.175 19.1113C279.334 18.9746 279.414 18.8151 279.414 18.6328V17.6074C279.414 17.4251 279.334 17.2656 279.175 17.1289C279.02 16.9922 278.846 16.9238 278.655 16.9238H277.971C277.744 16.9238 277.63 16.8099 277.63 16.582C277.63 16.3542 277.744 16.2402 277.971 16.2402H278.655C278.846 16.2402 279.02 16.1719 279.175 16.0352C279.334 15.8984 279.414 15.7389 279.414 15.5566V14.5312C279.414 14.349 279.334 14.1895 279.175 14.0527C279.02 13.916 278.846 13.8477 278.655 13.8477H277.971C277.643 13.8477 277.427 14.0049 277.322 14.3193C277.272 14.4743 277.169 14.5518 277.014 14.5518C276.777 14.5518 276.659 14.4424 276.659 14.2236C276.659 14.1826 276.666 14.1416 276.679 14.1006C276.775 13.818 276.939 13.5924 277.172 13.4238C277.409 13.2507 277.675 13.1641 277.971 13.1641H278.655C279.038 13.1641 279.373 13.3008 279.66 13.5742C279.952 13.8431 280.097 14.1621 280.097 14.5312V15.5566C280.097 15.9759 279.942 16.3177 279.633 16.582C279.942 16.8555 280.097 17.1973 280.097 17.6074V18.6328ZM286.266 19.6582C286.266 19.8861 286.152 20 285.924 20H283.532C283.153 20 282.83 19.8678 282.561 19.6035C282.297 19.3346 282.165 19.0111 282.165 18.6328V13.5059C282.165 13.278 282.278 13.1641 282.506 13.1641C282.734 13.1641 282.848 13.278 282.848 13.5059V18.6328C282.848 18.8197 282.914 18.9814 283.046 19.1182C283.183 19.2503 283.345 19.3164 283.532 19.3164H285.583V13.5059C285.583 13.278 285.696 13.1641 285.924 13.1641C286.152 13.1641 286.266 13.278 286.266 13.5059V19.6582ZM293.125 21.0254C293.125 21.2533 293.011 21.3672 292.783 21.3672C292.556 21.3672 292.442 21.2533 292.442 21.0254V20.0068H289.7C289.322 20.0068 288.999 19.8747 288.73 19.6104C288.465 19.3415 288.333 19.0179 288.333 18.6396V13.5059C288.333 13.278 288.447 13.1641 288.675 13.1641C288.903 13.1641 289.017 13.278 289.017 13.5059V18.6396C289.017 18.8265 289.083 18.9883 289.215 19.125C289.352 19.2572 289.514 19.3232 289.7 19.3232H291.758V13.5059C291.758 13.278 291.872 13.1641 292.1 13.1641C292.328 13.1641 292.442 13.278 292.442 13.5059V19.3232H292.783C293.011 19.3232 293.125 19.4372 293.125 19.665V21.0254ZM299.287 19.6582C299.287 19.8861 299.173 20 298.945 20H296.553C296.175 20 295.851 19.8678 295.582 19.6035C295.318 19.3346 295.186 19.0111 295.186 18.6328V13.5059C295.186 13.278 295.3 13.1641 295.527 13.1641C295.755 13.1641 295.869 13.278 295.869 13.5059V18.6328C295.869 18.8197 295.935 18.9814 296.067 19.1182C296.204 19.2503 296.366 19.3164 296.553 19.3164H298.604V13.5059C298.604 13.278 298.718 13.1641 298.945 13.1641C299.173 13.1641 299.287 13.278 299.287 13.5059V19.6582ZM305.456 19.6582C305.456 19.8861 305.342 20 305.114 20H302.722C302.343 20 302.02 19.8678 301.751 19.6035C301.487 19.3346 301.354 19.0111 301.354 18.6328V13.5059C301.354 13.278 301.468 13.1641 301.696 13.1641C301.924 13.1641 302.038 13.278 302.038 13.5059V18.6328C302.038 18.8197 302.104 18.9814 302.236 19.1182C302.373 19.2503 302.535 19.3164 302.722 19.3164H304.772V13.5059C304.772 13.278 304.886 13.1641 305.114 13.1641C305.342 13.1641 305.456 13.278 305.456 13.5059V19.6582ZM317.11 19.6582C317.11 19.8861 316.996 20 316.768 20C316.54 20 316.426 19.8861 316.426 19.6582V14.6406L315.004 16.7734C314.913 16.9056 314.818 16.9717 314.717 16.9717C314.612 16.9717 314.517 16.9056 314.43 16.7734L313.008 14.6406V19.6582C313.008 19.8861 312.894 20 312.667 20C312.439 20 312.325 19.8861 312.325 19.6582V13.5059C312.325 13.2734 312.439 13.1572 312.667 13.1572C312.79 13.1572 312.885 13.2096 312.954 13.3145L314.717 15.96L316.481 13.3145C316.554 13.2051 316.65 13.1504 316.768 13.1504C316.996 13.1504 317.11 13.2689 317.11 13.5059V19.6582ZM319.861 16.2471H322.595V14.5381C322.595 14.3512 322.527 14.1917 322.39 14.0596C322.258 13.9229 322.098 13.8545 321.911 13.8545H320.537C320.351 13.8545 320.191 13.9229 320.059 14.0596C319.927 14.1917 319.861 14.3512 319.861 14.5381V16.2471ZM319.861 16.9238V18.6328C319.861 18.8197 319.927 18.9814 320.059 19.1182C320.191 19.2503 320.351 19.3164 320.537 19.3164H322.93C323.158 19.3164 323.272 19.4303 323.272 19.6582C323.272 19.8861 323.158 20 322.93 20H320.537C320.159 20 319.838 19.8678 319.574 19.6035C319.309 19.3346 319.177 19.0111 319.177 18.6328V14.5381C319.177 14.1644 319.309 13.8431 319.574 13.5742C319.842 13.3053 320.164 13.1709 320.537 13.1709H321.911C322.29 13.1709 322.611 13.3053 322.875 13.5742C323.144 13.8385 323.279 14.1598 323.279 14.5381V16.582C323.279 16.8099 323.162 16.9238 322.93 16.9238H319.861ZM329.447 19.6582C329.447 19.8861 329.333 20 329.106 20C328.878 20 328.764 19.8861 328.764 19.6582V16.9238H326.029V19.6582C326.029 19.8861 325.915 20 325.688 20C325.46 20 325.346 19.8861 325.346 19.6582V13.5059C325.346 13.278 325.46 13.1641 325.688 13.1641C325.915 13.1641 326.029 13.278 326.029 13.5059V16.2402H328.764V13.5059C328.764 13.278 328.878 13.1641 329.106 13.1641C329.333 13.1641 329.447 13.278 329.447 13.5059V19.6582ZM335.616 18.6328V14.5312C335.616 14.3444 335.548 14.1849 335.411 14.0527C335.279 13.916 335.119 13.8477 334.933 13.8477H334.249C334.062 13.8477 333.9 13.916 333.764 14.0527C333.631 14.1849 333.565 14.3444 333.565 14.5312V18.6328C333.565 18.8197 333.631 18.9814 333.764 19.1182C333.9 19.2503 334.062 19.3164 334.249 19.3164H334.933C335.119 19.3164 335.279 19.2503 335.411 19.1182C335.548 18.9814 335.616 18.8197 335.616 18.6328ZM336.3 18.6328C336.3 19.0111 336.165 19.3346 335.896 19.6035C335.628 19.8678 335.306 20 334.933 20H334.249C333.871 20 333.547 19.8678 333.278 19.6035C333.014 19.3346 332.882 19.0111 332.882 18.6328V16.9238H332.198V19.6582C332.198 19.8861 332.084 20 331.856 20C331.628 20 331.515 19.8861 331.515 19.6582V13.5059C331.515 13.278 331.628 13.1641 331.856 13.1641C332.084 13.1641 332.198 13.278 332.198 13.5059V16.2402H332.882V14.5312C332.882 14.1576 333.014 13.8363 333.278 13.5674C333.547 13.2985 333.871 13.1641 334.249 13.1641H334.933C335.306 13.1641 335.628 13.2985 335.896 13.5674C336.165 13.8363 336.3 14.1576 336.3 14.5312V18.6328Z" fill="#666666"/>
<path d="M222.95 62.85C222.867 62.85 222.8 62.9172 222.8 63C222.8 63.0828 222.867 63.15 222.95 63.15V63V62.85ZM237.456 15.1061C237.514 15.0475 237.514 14.9525 237.456 14.8939L236.501 13.9393C236.443 13.8808 236.348 13.8808 236.289 13.9393C236.23 13.9979 236.23 14.0929 236.289 14.1515L237.138 15L236.289 15.8485C236.23 15.9071 236.23 16.0021 236.289 16.0607C236.348 16.1192 236.443 16.1192 236.501 16.0607L237.456 15.1061ZM230.15 55.8H230.3V22.2H230.15H230V55.8H230.15ZM230.15 22.2H230.3C230.3 18.3064 233.456 15.15 237.35 15.15V15V14.85C233.29 14.85 230 18.1407 230 22.2H230.15ZM222.95 63V63.15C227.009 63.15 230.3 59.8593 230.3 55.8H230.15H230C230 59.6936 226.843 62.85 222.95 62.85V63Z" fill="#666666"/>
<rect x="240.15" y="97" width="120" height="28" rx="8" stroke="#666666" stroke-width="0.3" stroke-linecap="round"/>
<path d="M285.241 114.633C285.241 115.011 285.106 115.335 284.837 115.604C284.573 115.868 284.252 116 283.874 116H282.506C282.128 116 281.805 115.868 281.536 115.604C281.271 115.335 281.139 115.011 281.139 114.633V110.531C281.139 110.158 281.274 109.836 281.542 109.567C281.811 109.299 282.133 109.164 282.506 109.164H283.874C284.247 109.164 284.569 109.299 284.837 109.567C285.106 109.836 285.241 110.158 285.241 110.531V114.633ZM284.557 114.633V110.531C284.557 110.344 284.489 110.185 284.352 110.053C284.22 109.916 284.06 109.848 283.874 109.848H282.506C282.319 109.848 282.158 109.916 282.021 110.053C281.889 110.185 281.823 110.344 281.823 110.531V114.633C281.823 114.82 281.889 114.981 282.021 115.118C282.158 115.25 282.319 115.316 282.506 115.316H283.874C284.06 115.316 284.22 115.25 284.352 115.118C284.489 114.981 284.557 114.82 284.557 114.633ZM290.042 109.848H287.992V115.658C287.992 115.886 287.878 116 287.65 116C287.422 116 287.308 115.886 287.308 115.658V109.506C287.308 109.278 287.422 109.164 287.65 109.164H292.093C292.467 109.164 292.788 109.299 293.057 109.567C293.326 109.836 293.46 110.158 293.46 110.531V115.658C293.46 115.886 293.346 116 293.118 116C292.891 116 292.777 115.886 292.777 115.658V110.531C292.777 110.344 292.708 110.185 292.572 110.053C292.439 109.916 292.28 109.848 292.093 109.848H290.726V115.658C290.726 115.886 290.612 116 290.384 116C290.156 116 290.042 115.886 290.042 115.658V109.848ZM299.287 114.633C299.287 115.007 299.141 115.328 298.85 115.597C298.563 115.866 298.228 116 297.845 116H296.819C296.528 116 296.261 115.913 296.02 115.74C295.778 115.567 295.612 115.339 295.521 115.057C295.507 115.016 295.5 114.975 295.5 114.934C295.5 114.715 295.619 114.605 295.856 114.605C296.02 114.605 296.127 114.688 296.177 114.852C296.273 115.161 296.487 115.316 296.819 115.316H297.845C298.036 115.316 298.209 115.248 298.364 115.111C298.524 114.975 298.604 114.815 298.604 114.633V113.607C298.604 113.425 298.524 113.266 298.364 113.129C298.209 112.992 298.036 112.924 297.845 112.924H297.161C296.933 112.924 296.819 112.81 296.819 112.582C296.819 112.354 296.933 112.24 297.161 112.24H297.845C298.036 112.24 298.209 112.172 298.364 112.035C298.524 111.898 298.604 111.739 298.604 111.557V110.531C298.604 110.349 298.524 110.189 298.364 110.053C298.209 109.916 298.036 109.848 297.845 109.848H297.161C296.833 109.848 296.617 110.005 296.512 110.319C296.462 110.474 296.359 110.552 296.204 110.552C295.967 110.552 295.849 110.442 295.849 110.224C295.849 110.183 295.856 110.142 295.869 110.101C295.965 109.818 296.129 109.592 296.361 109.424C296.598 109.251 296.865 109.164 297.161 109.164H297.845C298.228 109.164 298.563 109.301 298.85 109.574C299.141 109.843 299.287 110.162 299.287 110.531V111.557C299.287 111.976 299.132 112.318 298.822 112.582C299.132 112.855 299.287 113.197 299.287 113.607V114.633ZM306.14 115.658C306.14 115.886 306.026 116 305.798 116C305.57 116 305.456 115.886 305.456 115.658V109.506C305.456 109.278 305.57 109.164 305.798 109.164C306.026 109.164 306.14 109.278 306.14 109.506V115.658ZM304.772 114.633C304.772 115.011 304.638 115.335 304.369 115.604C304.105 115.868 303.783 116 303.405 116H301.696C301.468 116 301.354 115.886 301.354 115.658V109.506C301.354 109.278 301.468 109.164 301.696 109.164C301.924 109.164 302.038 109.278 302.038 109.506V112.24H303.405C303.783 112.24 304.105 112.375 304.369 112.644C304.638 112.912 304.772 113.234 304.772 113.607V114.633ZM304.089 114.633V113.607C304.089 113.421 304.02 113.261 303.884 113.129C303.752 112.992 303.592 112.924 303.405 112.924H302.038V115.316H303.405C303.592 115.316 303.752 115.25 303.884 115.118C304.02 114.981 304.089 114.82 304.089 114.633ZM312.308 114.633C312.308 115.007 312.174 115.328 311.905 115.597C311.641 115.866 311.317 116 310.934 116H309.581C309.198 116 308.872 115.866 308.603 115.597C308.339 115.328 308.207 115.007 308.207 114.633V107.797C308.207 107.368 308.348 107.029 308.631 106.778C308.886 106.55 309.198 106.437 309.567 106.437C309.941 106.437 310.255 106.55 310.51 106.778C310.793 107.029 310.934 107.368 310.934 107.797C310.934 108.12 310.832 108.403 310.627 108.645C310.449 108.79 310.242 108.964 310.005 109.164H310.934C311.317 109.164 311.641 109.299 311.905 109.567C312.174 109.832 312.308 110.153 312.308 110.531V114.633ZM310.258 107.797C310.258 107.578 310.189 107.41 310.052 107.291C309.92 107.173 309.761 107.113 309.574 107.113C309.387 107.113 309.23 107.17 309.102 107.284C308.961 107.407 308.89 107.578 308.89 107.797V109.164C309.36 108.863 309.731 108.576 310.005 108.303C310.173 108.134 310.258 107.965 310.258 107.797ZM311.625 114.633V110.531C311.625 110.344 311.556 110.185 311.42 110.053C311.287 109.916 311.126 109.848 310.934 109.848H309.581C309.389 109.848 309.225 109.916 309.089 110.053C308.956 110.185 308.89 110.344 308.89 110.531V114.633C308.89 114.82 308.956 114.981 309.089 115.118C309.225 115.25 309.389 115.316 309.581 115.316H310.934C311.126 115.316 311.287 115.25 311.42 115.118C311.556 114.981 311.625 114.82 311.625 114.633ZM319.161 115.658C319.161 115.886 319.047 116 318.819 116C318.591 116 318.477 115.886 318.477 115.658V109.506C318.477 109.278 318.591 109.164 318.819 109.164C319.047 109.164 319.161 109.278 319.161 109.506V115.658ZM317.793 114.633C317.793 115.011 317.659 115.335 317.39 115.604C317.126 115.868 316.805 116 316.426 116H314.717C314.489 116 314.375 115.886 314.375 115.658V109.506C314.375 109.278 314.489 109.164 314.717 109.164C314.945 109.164 315.059 109.278 315.059 109.506V112.24H316.426C316.805 112.24 317.126 112.375 317.39 112.644C317.659 112.912 317.793 113.234 317.793 113.607V114.633ZM317.11 114.633V113.607C317.11 113.421 317.042 113.261 316.905 113.129C316.773 112.992 316.613 112.924 316.426 112.924H315.059V115.316H316.426C316.613 115.316 316.773 115.25 316.905 115.118C317.042 114.981 317.11 114.82 317.11 114.633Z" fill="#666666"/>
<rect x="240.15" y="241" width="120" height="28" rx="8" stroke="#666666" stroke-width="0.3" stroke-linecap="round"/>
<path d="M279.605 253.533C279.605 253.615 279.573 253.693 279.509 253.766C278.803 254.54 278.097 255.313 277.39 256.083L279.537 259.474C279.573 259.533 279.592 259.594 279.592 259.658C279.592 259.754 279.555 259.836 279.482 259.904C279.409 259.968 279.327 260 279.236 260C279.122 260 279.031 259.948 278.963 259.843L276.919 256.609C276.786 256.76 276.538 257.035 276.174 257.437V259.658C276.174 259.886 276.06 260 275.832 260C275.604 260 275.49 259.886 275.49 259.658V253.506C275.49 253.278 275.604 253.164 275.832 253.164C276.06 253.164 276.174 253.278 276.174 253.506V256.411L279.004 253.301C279.077 253.223 279.159 253.185 279.25 253.185C279.345 253.185 279.427 253.221 279.496 253.294C279.569 253.362 279.605 253.442 279.605 253.533ZM285.753 258.633C285.753 259.011 285.619 259.335 285.35 259.604C285.086 259.868 284.764 260 284.386 260H283.019C282.641 260 282.317 259.868 282.048 259.604C281.784 259.335 281.652 259.011 281.652 258.633V254.531C281.652 254.158 281.786 253.836 282.055 253.567C282.324 253.299 282.645 253.164 283.019 253.164H284.386C284.76 253.164 285.081 253.299 285.35 253.567C285.619 253.836 285.753 254.158 285.753 254.531V258.633ZM285.07 258.633V254.531C285.07 254.344 285.001 254.185 284.865 254.053C284.733 253.916 284.573 253.848 284.386 253.848H283.019C282.832 253.848 282.67 253.916 282.534 254.053C282.402 254.185 282.335 254.344 282.335 254.531V258.633C282.335 258.82 282.402 258.981 282.534 259.118C282.67 259.25 282.832 259.316 283.019 259.316H284.386C284.573 259.316 284.733 259.25 284.865 259.118C285.001 258.981 285.07 258.82 285.07 258.633ZM291.922 259.658C291.922 259.886 291.808 260 291.58 260C291.353 260 291.239 259.886 291.239 259.658V256.924H288.504V259.658C288.504 259.886 288.39 260 288.162 260C287.935 260 287.821 259.886 287.821 259.658V253.506C287.821 253.278 287.935 253.164 288.162 253.164C288.39 253.164 288.504 253.278 288.504 253.506V256.24H291.239V253.506C291.239 253.278 291.353 253.164 291.58 253.164C291.808 253.164 291.922 253.278 291.922 253.506V259.658ZM296.724 253.848H294.673V259.658C294.673 259.886 294.559 260 294.331 260C294.103 260 293.989 259.886 293.989 259.658V253.506C293.989 253.278 294.103 253.164 294.331 253.164H298.775C299.148 253.164 299.47 253.299 299.738 253.567C300.007 253.836 300.142 254.158 300.142 254.531V259.658C300.142 259.886 300.028 260 299.8 260C299.572 260 299.458 259.886 299.458 259.658V254.531C299.458 254.344 299.39 254.185 299.253 254.053C299.121 253.916 298.961 253.848 298.775 253.848H297.407V259.658C297.407 259.886 297.293 260 297.066 260C296.838 260 296.724 259.886 296.724 259.658V253.848ZM302.892 259.323H304.95C305.137 259.323 305.296 259.255 305.429 259.118C305.561 258.981 305.627 258.82 305.627 258.633V254.524C305.627 254.342 305.558 254.185 305.422 254.053C305.29 253.916 305.132 253.848 304.95 253.848H302.892V259.323ZM302.892 260.007V262.393C302.892 262.62 302.779 262.734 302.551 262.734C302.323 262.734 302.209 262.62 302.209 262.393V253.506C302.209 253.278 302.323 253.164 302.551 253.164H304.95C305.324 253.164 305.643 253.299 305.907 253.567C306.176 253.832 306.31 254.151 306.31 254.524V258.633C306.31 259.007 306.176 259.33 305.907 259.604C305.643 259.872 305.324 260.007 304.95 260.007H302.892ZM312.479 258.633C312.479 259.011 312.345 259.335 312.076 259.604C311.812 259.868 311.49 260 311.112 260H309.745C309.367 260 309.043 259.868 308.774 259.604C308.51 259.335 308.378 259.011 308.378 258.633V254.531C308.378 254.158 308.512 253.836 308.781 253.567C309.05 253.299 309.371 253.164 309.745 253.164H311.112C311.486 253.164 311.807 253.299 312.076 253.567C312.345 253.836 312.479 254.158 312.479 254.531V258.633ZM311.796 258.633V254.531C311.796 254.344 311.727 254.185 311.591 254.053C311.458 253.916 311.299 253.848 311.112 253.848H309.745C309.558 253.848 309.396 253.916 309.259 254.053C309.127 254.185 309.061 254.344 309.061 254.531V258.633C309.061 258.82 309.127 258.981 309.259 259.118C309.396 259.25 309.558 259.316 309.745 259.316H311.112C311.299 259.316 311.458 259.25 311.591 259.118C311.727 258.981 311.796 258.82 311.796 258.633ZM318.648 259.658C318.648 259.886 318.534 260 318.306 260C318.078 260 317.964 259.886 317.964 259.658V253.848H316.529L315.223 259.733C315.182 259.911 315.073 260 314.895 260C314.663 260 314.546 259.891 314.546 259.672C314.546 259.645 314.549 259.615 314.553 259.583L315.92 253.431C315.961 253.253 316.073 253.164 316.255 253.164H318.306C318.534 253.164 318.648 253.278 318.648 253.506V259.658ZM324.817 258.633C324.817 259.011 324.682 259.335 324.413 259.604C324.149 259.868 323.828 260 323.45 260H321.057C320.829 260 320.715 259.886 320.715 259.658V253.506C320.715 253.278 320.829 253.164 321.057 253.164C321.285 253.164 321.399 253.278 321.399 253.506V256.24H323.45C323.828 256.24 324.149 256.375 324.413 256.644C324.682 256.912 324.817 257.234 324.817 257.607V258.633ZM324.133 258.633V257.607C324.133 257.421 324.065 257.261 323.928 257.129C323.796 256.992 323.636 256.924 323.45 256.924H321.399V259.316H323.45C323.636 259.316 323.796 259.25 323.928 259.118C324.065 258.981 324.133 258.82 324.133 258.633Z" fill="#666666"/>
<rect x="240.15" y="49" width="120" height="28" rx="8" stroke="#666666" stroke-width="0.3" stroke-linecap="round"/>
<path d="M273.758 67.6582C273.758 67.8861 273.644 68 273.416 68C273.188 68 273.074 67.8861 273.074 67.6582V62.5312C273.074 62.3444 273.006 62.1849 272.869 62.0527C272.737 61.916 272.577 61.8477 272.391 61.8477H270.34V67.6582C270.34 67.8861 270.226 68 269.998 68C269.77 68 269.656 67.8861 269.656 67.6582V61.5059C269.656 61.278 269.77 61.1641 269.998 61.1641H272.391C272.764 61.1641 273.086 61.2985 273.354 61.5674C273.623 61.8363 273.758 62.1576 273.758 62.5312V67.6582ZM276.508 67.3232H278.566C278.753 67.3232 278.912 67.2549 279.045 67.1182C279.177 66.9814 279.243 66.8197 279.243 66.6328V62.5244C279.243 62.3421 279.175 62.1849 279.038 62.0527C278.906 61.916 278.748 61.8477 278.566 61.8477H276.508V67.3232ZM276.508 68.0068V70.3926C276.508 70.6204 276.395 70.7344 276.167 70.7344C275.939 70.7344 275.825 70.6204 275.825 70.3926V61.5059C275.825 61.278 275.939 61.1641 276.167 61.1641H278.566C278.94 61.1641 279.259 61.2985 279.523 61.5674C279.792 61.8317 279.926 62.1507 279.926 62.5244V66.6328C279.926 67.0065 279.792 67.3301 279.523 67.6035C279.259 67.8724 278.94 68.0068 278.566 68.0068H276.508ZM286.095 66.6328C286.095 67.0111 285.961 67.3346 285.692 67.6035C285.428 67.8678 285.106 68 284.728 68H283.361C282.983 68 282.659 67.8678 282.39 67.6035C282.126 67.3346 281.994 67.0111 281.994 66.6328V62.5312C281.994 62.1576 282.128 61.8363 282.397 61.5674C282.666 61.2985 282.987 61.1641 283.361 61.1641H284.728C285.102 61.1641 285.423 61.2985 285.692 61.5674C285.961 61.8363 286.095 62.1576 286.095 62.5312V66.6328ZM285.412 66.6328V62.5312C285.412 62.3444 285.343 62.1849 285.207 62.0527C285.074 61.916 284.915 61.8477 284.728 61.8477H283.361C283.174 61.8477 283.012 61.916 282.875 62.0527C282.743 62.1849 282.677 62.3444 282.677 62.5312V66.6328C282.677 66.8197 282.743 66.9814 282.875 67.1182C283.012 67.2503 283.174 67.3164 283.361 67.3164H284.728C284.915 67.3164 285.074 67.2503 285.207 67.1182C285.343 66.9814 285.412 66.8197 285.412 66.6328ZM292.948 67.6582C292.948 67.8861 292.834 68 292.606 68C292.378 68 292.264 67.8861 292.264 67.6582V62.6406L290.842 64.7734C290.751 64.9056 290.655 64.9717 290.555 64.9717C290.45 64.9717 290.354 64.9056 290.268 64.7734L288.846 62.6406V67.6582C288.846 67.8861 288.732 68 288.504 68C288.276 68 288.162 67.8861 288.162 67.6582V61.5059C288.162 61.2734 288.276 61.1572 288.504 61.1572C288.627 61.1572 288.723 61.2096 288.791 61.3145L290.555 63.96L292.319 61.3145C292.392 61.2051 292.487 61.1504 292.606 61.1504C292.834 61.1504 292.948 61.2689 292.948 61.5059V67.6582ZM299.116 66.6328C299.116 67.0111 298.982 67.3346 298.713 67.6035C298.449 67.8678 298.127 68 297.749 68H296.382C296.004 68 295.68 67.8678 295.411 67.6035C295.147 67.3346 295.015 67.0111 295.015 66.6328V62.5312C295.015 62.1576 295.149 61.8363 295.418 61.5674C295.687 61.2985 296.008 61.1641 296.382 61.1641H297.749C298.123 61.1641 298.444 61.2985 298.713 61.5674C298.982 61.8363 299.116 62.1576 299.116 62.5312V66.6328ZM298.433 66.6328V62.5312C298.433 62.3444 298.364 62.1849 298.228 62.0527C298.095 61.916 297.936 61.8477 297.749 61.8477H296.382C296.195 61.8477 296.033 61.916 295.897 62.0527C295.764 62.1849 295.698 62.3444 295.698 62.5312V66.6328C295.698 66.8197 295.764 66.9814 295.897 67.1182C296.033 67.2503 296.195 67.3164 296.382 67.3164H297.749C297.936 67.3164 298.095 67.2503 298.228 67.1182C298.364 66.9814 298.433 66.8197 298.433 66.6328ZM304.526 66.6328V61.8477H302.475C302.289 61.8477 302.127 61.916 301.99 62.0527C301.858 62.1849 301.792 62.3444 301.792 62.5312V66.6328C301.792 66.8197 301.858 66.9814 301.99 67.1182C302.127 67.2503 302.289 67.3164 302.475 67.3164H303.843C304.03 67.3164 304.189 67.2503 304.321 67.1182C304.458 66.9814 304.526 66.8197 304.526 66.6328ZM305.921 67.665C305.921 67.902 305.809 68.0205 305.586 68.0205C305.39 68.0205 305.151 67.861 304.868 67.542C304.599 67.8473 304.257 68 303.843 68H302.475C302.097 68 301.774 67.8678 301.505 67.6035C301.24 67.3346 301.108 67.0111 301.108 66.6328V62.5312C301.108 62.1576 301.243 61.8363 301.512 61.5674C301.78 61.2985 302.102 61.1641 302.475 61.1641H304.868C305.096 61.1641 305.21 61.278 305.21 61.5059V66.6465C305.21 66.9883 305.365 67.2207 305.675 67.3438C305.839 67.4076 305.921 67.5146 305.921 67.665ZM311.474 61.5332C311.474 61.6152 311.442 61.6927 311.379 61.7656C310.672 62.5404 309.966 63.3128 309.259 64.083L311.406 67.4736C311.442 67.5329 311.461 67.5944 311.461 67.6582C311.461 67.7539 311.424 67.8359 311.351 67.9043C311.278 67.9681 311.196 68 311.105 68C310.991 68 310.9 67.9476 310.832 67.8428L308.788 64.6094C308.656 64.7598 308.407 65.0355 308.043 65.4365V67.6582C308.043 67.8861 307.929 68 307.701 68C307.473 68 307.359 67.8861 307.359 67.6582V61.5059C307.359 61.278 307.473 61.1641 307.701 61.1641C307.929 61.1641 308.043 61.278 308.043 61.5059V64.4111L310.873 61.3008C310.946 61.2233 311.028 61.1846 311.119 61.1846C311.215 61.1846 311.297 61.221 311.365 61.2939C311.438 61.3623 311.474 61.4421 311.474 61.5332ZM318.313 69.0254C318.313 69.2533 318.199 69.3672 317.971 69.3672C317.743 69.3672 317.629 69.2533 317.629 69.0254V68.0068H314.888C314.51 68.0068 314.186 67.8747 313.917 67.6104C313.653 67.3415 313.521 67.0179 313.521 66.6396V61.5059C313.521 61.278 313.635 61.1641 313.863 61.1641C314.091 61.1641 314.205 61.278 314.205 61.5059V66.6396C314.205 66.8265 314.271 66.9883 314.403 67.125C314.54 67.2572 314.701 67.3232 314.888 67.3232H316.946V61.5059C316.946 61.278 317.06 61.1641 317.288 61.1641C317.515 61.1641 317.629 61.278 317.629 61.5059V67.3232H317.971C318.199 67.3232 318.313 67.4372 318.313 67.665V69.0254ZM324.475 67.6582C324.475 67.8861 324.361 68 324.133 68H321.741C321.362 68 321.039 67.8678 320.77 67.6035C320.505 67.3346 320.373 67.0111 320.373 66.6328V61.5059C320.373 61.278 320.487 61.1641 320.715 61.1641C320.943 61.1641 321.057 61.278 321.057 61.5059V66.6328C321.057 66.8197 321.123 66.9814 321.255 67.1182C321.392 67.2503 321.554 67.3164 321.741 67.3164H323.791V61.5059C323.791 61.278 323.905 61.1641 324.133 61.1641C324.361 61.1641 324.475 61.278 324.475 61.5059V67.6582ZM330.644 67.6582C330.644 67.8861 330.53 68 330.302 68H327.909C327.531 68 327.207 67.8678 326.939 67.6035C326.674 67.3346 326.542 67.0111 326.542 66.6328V61.5059C326.542 61.278 326.656 61.1641 326.884 61.1641C327.112 61.1641 327.226 61.278 327.226 61.5059V66.6328C327.226 66.8197 327.292 66.9814 327.424 67.1182C327.561 67.2503 327.722 67.3164 327.909 67.3164H329.96V61.5059C329.96 61.278 330.074 61.1641 330.302 61.1641C330.53 61.1641 330.644 61.278 330.644 61.5059V67.6582Z" fill="#666666"/>
<path d="M222.95 62.85C222.867 62.85 222.8 62.9172 222.8 63C222.8 63.0828 222.867 63.15 222.95 63.15V63V62.85ZM237.456 63.1061C237.514 63.0475 237.514 62.9525 237.456 62.8939L236.501 61.9393C236.443 61.8808 236.348 61.8808 236.289 61.9393C236.23 61.9979 236.23 62.0929 236.289 62.1515L237.138 63L236.289 63.8485C236.23 63.9071 236.23 64.0021 236.289 64.0607C236.348 64.1192 236.443 64.1192 236.501 64.0607L237.456 63.1061ZM222.95 63V63.15H237.35V63V62.85H222.95V63Z" fill="#666666"/>
<rect x="240.15" y="193" width="120" height="28" rx="8" stroke="#666666" stroke-width="0.3" stroke-linecap="round"/>
<path d="M274.441 213.36C274.441 213.734 274.307 214.055 274.038 214.324C273.774 214.593 273.455 214.728 273.081 214.728H271.023C270.795 214.728 270.682 214.614 270.682 214.386C270.682 214.158 270.795 214.044 271.023 214.044H273.081C273.268 214.044 273.427 213.976 273.559 213.839C273.692 213.707 273.758 213.547 273.758 213.36V212H271.714C271.331 212 271.005 211.866 270.736 211.597C270.472 211.328 270.34 211.004 270.34 210.626V205.499C270.34 205.271 270.454 205.157 270.682 205.157C270.909 205.157 271.023 205.271 271.023 205.499V210.626C271.023 210.817 271.089 210.981 271.222 211.118C271.358 211.25 271.522 211.316 271.714 211.316H273.758V205.499C273.758 205.271 273.872 205.157 274.1 205.157C274.327 205.157 274.441 205.271 274.441 205.499V213.36ZM280.61 211.658C280.61 211.886 280.496 212 280.268 212C280.04 212 279.926 211.886 279.926 211.658V206.531C279.926 206.344 279.858 206.185 279.721 206.053C279.589 205.916 279.43 205.848 279.243 205.848H277.192V211.658C277.192 211.886 277.078 212 276.85 212C276.622 212 276.508 211.886 276.508 211.658V205.506C276.508 205.278 276.622 205.164 276.85 205.164H279.243C279.617 205.164 279.938 205.299 280.207 205.567C280.476 205.836 280.61 206.158 280.61 206.531V211.658ZM283.361 211.323H285.418C285.605 211.323 285.765 211.255 285.897 211.118C286.029 210.981 286.095 210.82 286.095 210.633V206.524C286.095 206.342 286.027 206.185 285.89 206.053C285.758 205.916 285.601 205.848 285.418 205.848H283.361V211.323ZM283.361 212.007V214.393C283.361 214.62 283.247 214.734 283.019 214.734C282.791 214.734 282.677 214.62 282.677 214.393V205.506C282.677 205.278 282.791 205.164 283.019 205.164H285.418C285.792 205.164 286.111 205.299 286.375 205.567C286.644 205.832 286.779 206.151 286.779 206.524V210.633C286.779 211.007 286.644 211.33 286.375 211.604C286.111 211.872 285.792 212.007 285.418 212.007H283.361ZM292.189 210.633V205.848H290.138C289.951 205.848 289.789 205.916 289.653 206.053C289.52 206.185 289.454 206.344 289.454 206.531V210.633C289.454 210.82 289.52 210.981 289.653 211.118C289.789 211.25 289.951 211.316 290.138 211.316H291.505C291.692 211.316 291.852 211.25 291.984 211.118C292.12 210.981 292.189 210.82 292.189 210.633ZM293.583 211.665C293.583 211.902 293.472 212.021 293.248 212.021C293.052 212.021 292.813 211.861 292.531 211.542C292.262 211.847 291.92 212 291.505 212H290.138C289.76 212 289.436 211.868 289.167 211.604C288.903 211.335 288.771 211.011 288.771 210.633V206.531C288.771 206.158 288.905 205.836 289.174 205.567C289.443 205.299 289.764 205.164 290.138 205.164H292.531C292.758 205.164 292.872 205.278 292.872 205.506V210.646C292.872 210.988 293.027 211.221 293.337 211.344C293.501 211.408 293.583 211.515 293.583 211.665ZM299.116 210.633C299.116 211.007 298.982 211.328 298.713 211.597C298.449 211.866 298.125 212 297.742 212H296.389C296.006 212 295.68 211.866 295.411 211.597C295.147 211.328 295.015 211.007 295.015 210.633V203.797C295.015 203.368 295.156 203.029 295.439 202.778C295.694 202.55 296.006 202.437 296.375 202.437C296.749 202.437 297.063 202.55 297.318 202.778C297.601 203.029 297.742 203.368 297.742 203.797C297.742 204.12 297.64 204.403 297.435 204.645C297.257 204.79 297.05 204.964 296.813 205.164H297.742C298.125 205.164 298.449 205.299 298.713 205.567C298.982 205.832 299.116 206.153 299.116 206.531V210.633ZM297.066 203.797C297.066 203.578 296.997 203.41 296.86 203.291C296.728 203.173 296.569 203.113 296.382 203.113C296.195 203.113 296.038 203.17 295.91 203.284C295.769 203.407 295.698 203.578 295.698 203.797V205.164C296.168 204.863 296.539 204.576 296.813 204.303C296.981 204.134 297.066 203.965 297.066 203.797ZM298.433 210.633V206.531C298.433 206.344 298.364 206.185 298.228 206.053C298.095 205.916 297.934 205.848 297.742 205.848H296.389C296.197 205.848 296.033 205.916 295.897 206.053C295.764 206.185 295.698 206.344 295.698 206.531V210.633C295.698 210.82 295.764 210.981 295.897 211.118C296.033 211.25 296.197 211.316 296.389 211.316H297.742C297.934 211.316 298.095 211.25 298.228 211.118C298.364 210.981 298.433 210.82 298.433 210.633ZM305.285 211.658C305.285 211.886 305.171 212 304.943 212C304.715 212 304.601 211.886 304.601 211.658V205.848H303.166L301.86 211.733C301.819 211.911 301.71 212 301.532 212C301.3 212 301.183 211.891 301.183 211.672C301.183 211.645 301.186 211.615 301.19 211.583L302.558 205.431C302.599 205.253 302.71 205.164 302.892 205.164H304.943C305.171 205.164 305.285 205.278 305.285 205.506V211.658ZM308.036 208.247H310.77V206.538C310.77 206.351 310.702 206.192 310.565 206.06C310.433 205.923 310.273 205.854 310.087 205.854H308.713C308.526 205.854 308.366 205.923 308.234 206.06C308.102 206.192 308.036 206.351 308.036 206.538V208.247ZM308.036 208.924V210.633C308.036 210.82 308.102 210.981 308.234 211.118C308.366 211.25 308.526 211.316 308.713 211.316H311.105C311.333 211.316 311.447 211.43 311.447 211.658C311.447 211.886 311.333 212 311.105 212H308.713C308.334 212 308.013 211.868 307.749 211.604C307.484 211.335 307.352 211.011 307.352 210.633V206.538C307.352 206.164 307.484 205.843 307.749 205.574C308.018 205.305 308.339 205.171 308.713 205.171H310.087C310.465 205.171 310.786 205.305 311.05 205.574C311.319 205.839 311.454 206.16 311.454 206.538V208.582C311.454 208.81 311.338 208.924 311.105 208.924H308.036ZM317.623 211.658C317.623 211.886 317.509 212 317.281 212C317.053 212 316.939 211.886 316.939 211.658V208.924H314.205V211.658C314.205 211.886 314.091 212 313.863 212C313.635 212 313.521 211.886 313.521 211.658V205.506C313.521 205.278 313.635 205.164 313.863 205.164C314.091 205.164 314.205 205.278 314.205 205.506V208.24H316.939V205.506C316.939 205.278 317.053 205.164 317.281 205.164C317.509 205.164 317.623 205.278 317.623 205.506V211.658ZM323.791 211.658C323.791 211.886 323.677 212 323.45 212H321.057C320.679 212 320.355 211.868 320.086 211.604C319.822 211.335 319.69 211.011 319.69 210.633V205.506C319.69 205.278 319.804 205.164 320.032 205.164C320.259 205.164 320.373 205.278 320.373 205.506V210.633C320.373 210.82 320.439 210.981 320.572 211.118C320.708 211.25 320.87 211.316 321.057 211.316H323.108V205.506C323.108 205.278 323.222 205.164 323.45 205.164C323.677 205.164 323.791 205.278 323.791 205.506V211.658ZM326.542 208.247H329.276V206.538C329.276 206.351 329.208 206.192 329.071 206.06C328.939 205.923 328.78 205.854 328.593 205.854H327.219C327.032 205.854 326.872 205.923 326.74 206.06C326.608 206.192 326.542 206.351 326.542 206.538V208.247ZM326.542 208.924V210.633C326.542 210.82 326.608 210.981 326.74 211.118C326.872 211.25 327.032 211.316 327.219 211.316H329.611C329.839 211.316 329.953 211.43 329.953 211.658C329.953 211.886 329.839 212 329.611 212H327.219C326.841 212 326.519 211.868 326.255 211.604C325.991 211.335 325.858 211.011 325.858 210.633V206.538C325.858 206.164 325.991 205.843 326.255 205.574C326.524 205.305 326.845 205.171 327.219 205.171H328.593C328.971 205.171 329.292 205.305 329.557 205.574C329.826 205.839 329.96 206.16 329.96 206.538V208.582C329.96 208.81 329.844 208.924 329.611 208.924H326.542Z" fill="#666666"/>
<path d="M222.95 254.85C222.867 254.85 222.8 254.917 222.8 255C222.8 255.083 222.867 255.15 222.95 255.15V255V254.85ZM237.456 207.106C237.514 207.047 237.514 206.953 237.456 206.894L236.501 205.939C236.443 205.881 236.348 205.881 236.289 205.939C236.23 205.998 236.23 206.093 236.289 206.151L237.138 207L236.289 207.849C236.23 207.907 236.23 208.002 236.289 208.061C236.348 208.119 236.443 208.119 236.501 208.061L237.456 207.106ZM230.15 247.8H230.3V214.2H230.15H230V247.8H230.15ZM230.15 214.2H230.3C230.3 210.306 233.456 207.15 237.35 207.15V207V206.85C233.29 206.85 230 210.141 230 214.2H230.15ZM222.95 255V255.15C227.009 255.15 230.3 251.859 230.3 247.8H230.15H230C230 251.694 226.843 254.85 222.95 254.85V255Z" fill="#666666"/>
<path d="M52.2999 79.7999C52.2999 79.7171 52.2327 79.6499 52.1499 79.6499C52.0671 79.6499 51.9999 79.7171 51.9999 79.7999H52.1499H52.2999ZM52.0438 94.306C52.1024 94.3646 52.1974 94.3646 52.256 94.306L53.2106 93.3514C53.2691 93.2928 53.2691 93.1978 53.2106 93.1393C53.152 93.0807 53.057 93.0807 52.9984 93.1393L52.1499 93.9878L51.3014 93.1393C51.2428 93.0807 51.1478 93.0807 51.0892 93.1393C51.0307 93.1978 51.0307 93.2928 51.0892 93.3514L52.0438 94.306ZM52.1499 79.7999H51.9999V94.1999H52.1499H52.2999V79.7999H52.1499Z" fill="#666666"/>
<rect x="124.15" y="145" width="96" height="28" rx="8" stroke="#666666" stroke-width="0.3" stroke-linecap="round"/>
<path d="M147.742 162.633V157.848H145.691C145.504 157.848 145.342 157.916 145.205 158.053C145.073 158.185 145.007 158.344 145.007 158.531V162.633C145.007 162.82 145.073 162.981 145.205 163.118C145.342 163.25 145.504 163.316 145.691 163.316H147.058C147.245 163.316 147.404 163.25 147.536 163.118C147.673 162.981 147.742 162.82 147.742 162.633ZM149.136 163.665C149.136 163.902 149.024 164.021 148.801 164.021C148.605 164.021 148.366 163.861 148.083 163.542C147.814 163.847 147.473 164 147.058 164H145.691C145.312 164 144.989 163.868 144.72 163.604C144.456 163.335 144.324 163.011 144.324 162.633V158.531C144.324 158.158 144.458 157.836 144.727 157.567C144.996 157.299 145.317 157.164 145.691 157.164H148.083C148.311 157.164 148.425 157.278 148.425 157.506V162.646C148.425 162.988 148.58 163.221 148.89 163.344C149.054 163.408 149.136 163.515 149.136 163.665ZM154.669 163.658C154.669 163.886 154.555 164 154.327 164C154.099 164 153.985 163.886 153.985 163.658V160.924H151.251V163.658C151.251 163.886 151.137 164 150.909 164C150.681 164 150.567 163.886 150.567 163.658V157.506C150.567 157.278 150.681 157.164 150.909 157.164C151.137 157.164 151.251 157.278 151.251 157.506V160.24H153.985V157.506C153.985 157.278 154.099 157.164 154.327 157.164C154.555 157.164 154.669 157.278 154.669 157.506V163.658ZM160.079 162.633V157.848H158.028C157.841 157.848 157.68 157.916 157.543 158.053C157.411 158.185 157.345 158.344 157.345 158.531V162.633C157.345 162.82 157.411 162.981 157.543 163.118C157.68 163.25 157.841 163.316 158.028 163.316H159.395C159.582 163.316 159.742 163.25 159.874 163.118C160.011 162.981 160.079 162.82 160.079 162.633ZM161.474 163.665C161.474 163.902 161.362 164.021 161.139 164.021C160.943 164.021 160.703 163.861 160.421 163.542C160.152 163.847 159.81 164 159.395 164H158.028C157.65 164 157.326 163.868 157.058 163.604C156.793 163.335 156.661 163.011 156.661 162.633V158.531C156.661 158.158 156.795 157.836 157.064 157.567C157.333 157.299 157.655 157.164 158.028 157.164H160.421C160.649 157.164 160.763 157.278 160.763 157.506V162.646C160.763 162.988 160.918 163.221 161.227 163.344C161.392 163.408 161.474 163.515 161.474 163.665ZM167.007 163.658C167.007 163.886 166.893 164 166.665 164C166.437 164 166.323 163.886 166.323 163.658V157.848H164.887L163.582 163.733C163.541 163.911 163.431 164 163.254 164C163.021 164 162.905 163.891 162.905 163.672C162.905 163.645 162.907 163.615 162.912 163.583L164.279 157.431C164.32 157.253 164.432 157.164 164.614 157.164H166.665C166.893 157.164 167.007 157.278 167.007 157.506V163.658ZM173.175 163.658C173.175 163.886 173.061 164 172.833 164H170.441C170.063 164 169.739 163.868 169.47 163.604C169.206 163.335 169.074 163.011 169.074 162.633V157.506C169.074 157.278 169.188 157.164 169.416 157.164C169.643 157.164 169.757 157.278 169.757 157.506V162.633C169.757 162.82 169.823 162.981 169.956 163.118C170.092 163.25 170.254 163.316 170.441 163.316H172.492V157.506C172.492 157.278 172.606 157.164 172.833 157.164C173.061 157.164 173.175 157.278 173.175 157.506V163.658ZM177.977 157.848H175.926V163.658C175.926 163.886 175.812 164 175.584 164C175.356 164 175.242 163.886 175.242 163.658V157.506C175.242 157.278 175.356 157.164 175.584 157.164H180.028C180.401 157.164 180.723 157.299 180.992 157.567C181.26 157.836 181.395 158.158 181.395 158.531V163.658C181.395 163.886 181.281 164 181.053 164C180.825 164 180.711 163.886 180.711 163.658V158.531C180.711 158.344 180.643 158.185 180.506 158.053C180.374 157.916 180.214 157.848 180.028 157.848H178.66V163.658C178.66 163.886 178.547 164 178.319 164C178.091 164 177.977 163.886 177.977 163.658V157.848ZM187.564 163.658C187.564 163.886 187.45 164 187.222 164H184.829C184.451 164 184.127 163.868 183.858 163.604C183.594 163.335 183.462 163.011 183.462 162.633V157.506C183.462 157.278 183.576 157.164 183.804 157.164C184.032 157.164 184.146 157.278 184.146 157.506V162.633C184.146 162.82 184.212 162.981 184.344 163.118C184.481 163.25 184.642 163.316 184.829 163.316H186.88V157.506C186.88 157.278 186.994 157.164 187.222 157.164C187.45 157.164 187.564 157.278 187.564 157.506V163.658ZM193.753 157.533C193.753 157.615 193.721 157.693 193.657 157.766C192.951 158.54 192.244 159.313 191.538 160.083L193.684 163.474C193.721 163.533 193.739 163.594 193.739 163.658C193.739 163.754 193.703 163.836 193.63 163.904C193.557 163.968 193.475 164 193.384 164C193.27 164 193.179 163.948 193.11 163.843L191.066 160.609C190.934 160.76 190.686 161.035 190.321 161.437V163.658C190.321 163.886 190.207 164 189.979 164C189.752 164 189.638 163.886 189.638 163.658V157.506C189.638 157.278 189.752 157.164 189.979 157.164C190.207 157.164 190.321 157.278 190.321 157.506V160.411L193.151 157.301C193.224 157.223 193.306 157.185 193.397 157.185C193.493 157.185 193.575 157.221 193.643 157.294C193.716 157.362 193.753 157.442 193.753 157.533ZM199.142 162.633V157.848H197.092C196.905 157.848 196.743 157.916 196.606 158.053C196.474 158.185 196.408 158.344 196.408 158.531V162.633C196.408 162.82 196.474 162.981 196.606 163.118C196.743 163.25 196.905 163.316 197.092 163.316H198.459C198.646 163.316 198.805 163.25 198.937 163.118C199.074 162.981 199.142 162.82 199.142 162.633ZM200.537 163.665C200.537 163.902 200.425 164.021 200.202 164.021C200.006 164.021 199.767 163.861 199.484 163.542C199.215 163.847 198.873 164 198.459 164H197.092C196.713 164 196.39 163.868 196.121 163.604C195.856 163.335 195.724 163.011 195.724 162.633V158.531C195.724 158.158 195.859 157.836 196.128 157.567C196.397 157.299 196.718 157.164 197.092 157.164H199.484C199.712 157.164 199.826 157.278 199.826 157.506V162.646C199.826 162.988 199.981 163.221 200.291 163.344C200.455 163.408 200.537 163.515 200.537 163.665Z" fill="#666666"/>
<path d="M222.95 62.85C222.867 62.85 222.8 62.9172 222.8 63C222.8 63.0828 222.867 63.15 222.95 63.15V63V62.85ZM237.456 111.106C237.514 111.047 237.514 110.953 237.456 110.894L236.501 109.939C236.443 109.881 236.348 109.881 236.289 109.939C236.23 109.998 236.23 110.093 236.289 110.151L237.138 111L236.289 111.849C236.23 111.907 236.23 112.002 236.289 112.061C236.348 112.119 236.443 112.119 236.501 112.061L237.456 111.106ZM230.15 70.2H230V103.8H230.15H230.3V70.2H230.15ZM230.15 103.8H230C230 107.859 233.29 111.15 237.35 111.15V111V110.85C233.456 110.85 230.3 107.694 230.3 103.8H230.15ZM222.95 63V63.15C226.843 63.15 230 66.3064 230 70.2H230.15H230.3C230.3 66.1407 227.009 62.85 222.95 62.85V63Z" fill="#666666"/>
<path d="M222.95 254.85C222.867 254.85 222.8 254.917 222.8 255C222.8 255.083 222.867 255.15 222.95 255.15V255V254.85ZM237.456 303.106C237.514 303.047 237.514 302.953 237.456 302.894L236.501 301.939C236.443 301.881 236.348 301.881 236.289 301.939C236.23 301.998 236.23 302.093 236.289 302.151L237.138 303L236.289 303.849C236.23 303.907 236.23 304.002 236.289 304.061C236.348 304.119 236.443 304.119 236.501 304.061L237.456 303.106ZM230.15 262.2H230V295.8H230.15H230.3V262.2H230.15ZM230.15 295.8H230C230 299.859 233.29 303.15 237.35 303.15V303V302.85C233.456 302.85 230.3 299.694 230.3 295.8H230.15ZM222.95 255V255.15C226.843 255.15 230 258.306 230 262.2H230.15H230.3C230.3 258.141 227.009 254.85 222.95 254.85V255Z" fill="#666666"/>
<path d="M222.95 254.85C222.867 254.85 222.8 254.917 222.8 255C222.8 255.083 222.867 255.15 222.95 255.15V255V254.85ZM237.456 255.106C237.514 255.047 237.514 254.953 237.456 254.894L236.501 253.939C236.443 253.881 236.348 253.881 236.289 253.939C236.23 253.998 236.23 254.093 236.289 254.151L237.138 255L236.289 255.849C236.23 255.907 236.23 256.002 236.289 256.061C236.348 256.119 236.443 256.119 236.501 256.061L237.456 255.106ZM222.95 255V255.15H237.35V255V254.85H222.95V255Z" fill="#666666"/>
<path d="M106.95 158.85C106.867 158.85 106.8 158.917 106.8 159C106.8 159.083 106.867 159.15 106.95 159.15V159V158.85ZM121.456 159.106C121.514 159.047 121.514 158.953 121.456 158.894L120.501 157.939C120.443 157.881 120.348 157.881 120.289 157.939C120.23 157.998 120.23 158.093 120.289 158.151L121.138 159L120.289 159.849C120.23 159.907 120.23 160.002 120.289 160.061C120.348 160.119 120.443 160.119 120.501 160.061L121.456 159.106ZM106.95 159V159.15H121.35V159V158.85H106.95V159Z" fill="#666666"/>
</svg>
