<svg width="2055" height="2055" viewBox="0 0 2055 2055" fill="none" xmlns="http://www.w3.org/2000/svg">
<g clip-path="url(#clip0_149_1832)">
<path d="M1027.05 1.03906L0.332099 1027.76" stroke="#5A89B1" stroke-width="0.96"/>
<path d="M1287.97 260.547L261.254 1287.27" stroke="#5A89B1" stroke-width="0.96"/>
<path d="M1157.16 131.146L130.44 1157.87" stroke="#5A89B1" stroke-width="0.96"/>
<path d="M1418.08 390.655L391.362 1417.37" stroke="#5A89B1" stroke-width="0.96"/>
<path d="M1092.1 66.0928L65.3858 1092.81" stroke="#5A89B1" stroke-width="0.96"/>
<path d="M1353.03 325.601L326.308 1352.32" stroke="#5A89B1" stroke-width="0.96"/>
<path d="M1222.21 196.201L195.493 1222.92" stroke="#5A89B1" stroke-width="0.96"/>
<path d="M1483.14 455.708L456.416 1482.43" stroke="#5A89B1" stroke-width="0.96"/>
<path d="M1029.88 3.86719L3.16022 1030.59" stroke="#5A89B1" stroke-width="0.96"/>
<path d="M1290.8 263.375L264.083 1290.09" stroke="#5A89B1" stroke-width="0.96"/>
<path d="M1159.99 133.975L133.268 1160.69" stroke="#5A89B1" stroke-width="0.96"/>
<path d="M1420.91 393.483L394.19 1420.2" stroke="#5A89B1" stroke-width="0.96"/>
<path d="M1094.93 68.9214L68.2139 1095.64" stroke="#5A89B1" stroke-width="0.96"/>
<path d="M1355.86 328.429L329.137 1355.15" stroke="#5A89B1" stroke-width="0.96"/>
<path d="M1225.04 199.029L198.321 1225.75" stroke="#5A89B1" stroke-width="0.96"/>
<path d="M1485.96 458.537L459.244 1485.26" stroke="#5A89B1" stroke-width="0.96"/>
<path d="M1032.71 6.6958L5.98835 1033.41" stroke="#5A89B1" stroke-width="0.96"/>
<path d="M1293.63 266.204L266.911 1292.92" stroke="#5A89B1" stroke-width="0.96"/>
<path d="M1162.82 136.804L136.097 1163.52" stroke="#5A89B1" stroke-width="0.96"/>
<path d="M1423.74 396.312L397.019 1423.03" stroke="#5A89B1" stroke-width="0.96"/>
<path d="M1097.76 71.7495L71.0421 1098.47" stroke="#5A89B1" stroke-width="0.96"/>
<path d="M1358.68 331.258L331.965 1357.98" stroke="#5A89B1" stroke-width="0.96"/>
<path d="M1227.87 201.857L201.15 1228.58" stroke="#5A89B1" stroke-width="0.96"/>
<path d="M1488.79 461.366L462.072 1488.08" stroke="#5A89B1" stroke-width="0.96"/>
<path d="M1035.54 9.52441L8.81745 1036.24" stroke="#5A89B1" stroke-width="0.96"/>
<path d="M1296.46 269.032L269.739 1295.75" stroke="#5A89B1" stroke-width="0.96"/>
<path d="M1165.64 139.632L138.925 1166.35" stroke="#5A89B1" stroke-width="0.96"/>
<path d="M1426.57 399.14L399.847 1425.86" stroke="#5A89B1" stroke-width="0.96"/>
<path d="M1100.59 74.5781L73.8712 1101.3" stroke="#5A89B1" stroke-width="0.96"/>
<path d="M1361.51 334.086L334.793 1360.81" stroke="#5A89B1" stroke-width="0.96"/>
<path d="M1230.7 204.686L203.979 1231.4" stroke="#5A89B1" stroke-width="0.96"/>
<path d="M1491.62 464.194L464.901 1490.91" stroke="#5A89B1" stroke-width="0.96"/>
<path d="M1038.36 12.3525L11.6456 1039.07" stroke="#5A89B1" stroke-width="0.96"/>
<path d="M1299.29 271.861L272.568 1298.58" stroke="#5A89B1" stroke-width="0.96"/>
<path d="M1168.47 142.46L141.753 1169.18" stroke="#5A89B1" stroke-width="0.96"/>
<path d="M1429.39 401.969L402.676 1428.69" stroke="#5A89B1" stroke-width="0.96"/>
<path d="M1103.42 77.4067L76.6993 1104.13" stroke="#5A89B1" stroke-width="0.96"/>
<path d="M1364.34 336.915L337.622 1363.63" stroke="#5A89B1" stroke-width="0.96"/>
<path d="M1233.53 207.514L206.807 1234.23" stroke="#5A89B1" stroke-width="0.96"/>
<path d="M1494.45 467.022L467.73 1493.74" stroke="#5A89B1" stroke-width="0.96"/>
<path d="M1041.19 15.1812L14.4737 1041.9" stroke="#5A89B1" stroke-width="0.96"/>
<path d="M1302.12 274.689L275.397 1301.41" stroke="#5A89B1" stroke-width="0.96"/>
<path d="M1171.3 145.289L144.582 1172.01" stroke="#5A89B1" stroke-width="0.96"/>
<path d="M1432.22 404.797L405.504 1431.52" stroke="#5A89B1" stroke-width="0.96"/>
<path d="M1106.25 80.2349L79.5274 1106.95" stroke="#5A89B1" stroke-width="0.96"/>
<path d="M1367.17 339.743L340.45 1366.46" stroke="#5A89B1" stroke-width="0.96"/>
<path d="M1236.35 210.343L209.636 1237.06" stroke="#5A89B1" stroke-width="0.96"/>
<path d="M1497.28 469.851L470.558 1496.57" stroke="#5A89B1" stroke-width="0.96"/>
<path d="M1044.02 18.0098L17.3028 1044.73" stroke="#5A89B1" stroke-width="0.96"/>
<path d="M1304.94 277.518L278.225 1304.24" stroke="#5A89B1" stroke-width="0.96"/>
<path d="M1174.13 148.117L147.41 1174.84" stroke="#5A89B1" stroke-width="0.96"/>
<path d="M1435.05 407.625L408.332 1434.34" stroke="#5A89B1" stroke-width="0.96"/>
<path d="M1109.08 83.0635L82.3565 1109.78" stroke="#5A89B1" stroke-width="0.96"/>
<path d="M1370 342.572L343.278 1369.29" stroke="#5A89B1" stroke-width="0.96"/>
<path d="M1239.18 213.171L212.464 1239.89" stroke="#5A89B1" stroke-width="0.96"/>
<path d="M1500.11 472.679L473.387 1499.4" stroke="#5A89B1" stroke-width="0.96"/>
<path d="M1046.85 20.8379L20.1309 1047.56" stroke="#5A89B1" stroke-width="0.96"/>
<path d="M1307.77 280.346L281.053 1307.07" stroke="#5A89B1" stroke-width="0.96"/>
<path d="M1176.96 150.946L150.238 1177.66" stroke="#5A89B1" stroke-width="0.96"/>
<path d="M1437.88 410.454L411.161 1437.17" stroke="#5A89B1" stroke-width="0.96"/>
<path d="M1111.9 85.8916L85.1846 1112.61" stroke="#5A89B1" stroke-width="0.96"/>
<path d="M1372.83 345.4L346.107 1372.12" stroke="#5A89B1" stroke-width="0.96"/>
<path d="M1242.01 216L215.292 1242.72" stroke="#5A89B1" stroke-width="0.96"/>
<path d="M1502.93 475.508L476.215 1502.23" stroke="#5A89B1" stroke-width="0.96"/>
<path d="M1049.68 23.6665L22.9591 1050.39" stroke="#5A89B1" stroke-width="0.96"/>
<path d="M1310.6 283.175L283.882 1309.89" stroke="#5A89B1" stroke-width="0.96"/>
<path d="M1179.79 153.774L153.066 1180.49" stroke="#5A89B1" stroke-width="0.96"/>
<path d="M1440.71 413.282L413.989 1440" stroke="#5A89B1" stroke-width="0.96"/>
<path d="M1114.73 88.7202L88.0128 1115.44" stroke="#5A89B1" stroke-width="0.96"/>
<path d="M1375.65 348.229L348.936 1374.95" stroke="#5A89B1" stroke-width="0.96"/>
<path d="M1244.84 218.828L218.121 1245.55" stroke="#5A89B1" stroke-width="0.96"/>
<path d="M1505.76 478.336L479.043 1505.05" stroke="#5A89B1" stroke-width="0.96"/>
<path d="M1052.51 26.4946L25.7882 1053.21" stroke="#5A89B1" stroke-width="0.96"/>
<path d="M1313.43 286.003L286.71 1312.72" stroke="#5A89B1" stroke-width="0.96"/>
<path d="M1182.61 156.603L155.896 1183.32" stroke="#5A89B1" stroke-width="0.96"/>
<path d="M1443.54 416.111L416.817 1442.83" stroke="#5A89B1" stroke-width="0.96"/>
<path d="M1117.56 91.5488L90.8419 1118.27" stroke="#5A89B1" stroke-width="0.96"/>
<path d="M1378.48 351.057L351.764 1377.78" stroke="#5A89B1" stroke-width="0.96"/>
<path d="M1247.67 221.656L220.949 1248.38" stroke="#5A89B1" stroke-width="0.96"/>
<path d="M1508.59 481.165L481.871 1507.88" stroke="#5A89B1" stroke-width="0.96"/>
<path d="M1055.34 29.3232L28.6163 1056.04" stroke="#5A89B1" stroke-width="0.96"/>
<path d="M1316.26 288.832L289.538 1315.55" stroke="#5A89B1" stroke-width="0.96"/>
<path d="M1185.44 159.431L158.724 1186.15" stroke="#5A89B1" stroke-width="0.96"/>
<path d="M1446.37 418.939L419.647 1445.66" stroke="#5A89B1" stroke-width="0.96"/>
<path d="M1120.39 94.377L93.67 1121.1" stroke="#5A89B1" stroke-width="0.96"/>
<path d="M1381.31 353.885L354.593 1380.6" stroke="#5A89B1" stroke-width="0.96"/>
<path d="M1250.5 224.485L223.777 1251.2" stroke="#5A89B1" stroke-width="0.96"/>
<path d="M1511.42 483.993L484.7 1510.71" stroke="#5A89B1" stroke-width="0.96"/>
<path d="M1058.16 32.1519L31.4444 1058.87" stroke="#5A89B1" stroke-width="0.96"/>
<path d="M1319.09 291.66L292.367 1318.38" stroke="#5A89B1" stroke-width="0.96"/>
<path d="M1188.27 162.259L161.552 1188.98" stroke="#5A89B1" stroke-width="0.96"/>
<path d="M1449.19 421.768L422.475 1448.49" stroke="#5A89B1" stroke-width="0.96"/>
<path d="M1123.22 97.2056L96.4981 1123.92" stroke="#5A89B1" stroke-width="0.96"/>
<path d="M1384.14 356.714L357.421 1383.43" stroke="#5A89B1" stroke-width="0.96"/>
<path d="M1253.33 227.313L226.607 1254.03" stroke="#5A89B1" stroke-width="0.96"/>
<path d="M1514.25 486.821L487.528 1513.54" stroke="#5A89B1" stroke-width="0.96"/>
<path d="M1060.99 34.98L34.2725 1061.7" stroke="#5A89B1" stroke-width="0.96"/>
<path d="M1321.91 294.488L295.195 1321.21" stroke="#5A89B1" stroke-width="0.96"/>
<path d="M1191.1 165.088L164.381 1191.81" stroke="#5A89B1" stroke-width="0.96"/>
<path d="M1452.02 424.596L425.303 1451.32" stroke="#5A89B1" stroke-width="0.96"/>
<path d="M1126.05 100.034L99.3272 1126.75" stroke="#5A89B1" stroke-width="0.96"/>
<path d="M1386.97 359.542L360.249 1386.26" stroke="#5A89B1" stroke-width="0.96"/>
<path d="M1256.15 230.142L229.435 1256.86" stroke="#5A89B1" stroke-width="0.96"/>
<path d="M1517.08 489.65L490.357 1516.37" stroke="#5A89B1" stroke-width="0.96"/>
<path d="M1063.82 37.8086L37.1016 1064.53" stroke="#5A89B1" stroke-width="0.96"/>
<path d="M1324.74 297.317L298.024 1324.04" stroke="#5A89B1" stroke-width="0.96"/>
<path d="M1193.93 167.916L167.209 1194.64" stroke="#5A89B1" stroke-width="0.96"/>
<path d="M1454.85 427.424L428.132 1454.14" stroke="#5A89B1" stroke-width="0.96"/>
<path d="M1128.87 102.862L102.155 1129.58" stroke="#5A89B1" stroke-width="0.96"/>
<path d="M1389.8 362.371L363.077 1389.09" stroke="#5A89B1" stroke-width="0.96"/>
<path d="M1258.98 232.97L232.263 1259.69" stroke="#5A89B1" stroke-width="0.96"/>
<path d="M1519.9 492.478L493.186 1519.2" stroke="#5A89B1" stroke-width="0.96"/>
<path d="M1066.65 40.6372L39.9298 1067.36" stroke="#5A89B1" stroke-width="0.96"/>
<path d="M1327.57 300.145L300.853 1326.86" stroke="#5A89B1" stroke-width="0.96"/>
<path d="M1196.76 170.745L170.037 1197.46" stroke="#5A89B1" stroke-width="0.96"/>
<path d="M1457.68 430.253L430.96 1456.97" stroke="#5A89B1" stroke-width="0.96"/>
<path d="M1131.7 105.691L104.983 1132.41" stroke="#5A89B1" stroke-width="0.96"/>
<path d="M1392.63 365.199L365.906 1391.92" stroke="#5A89B1" stroke-width="0.96"/>
<path d="M1261.81 235.798L235.091 1262.52" stroke="#5A89B1" stroke-width="0.96"/>
<path d="M1522.73 495.307L496.014 1522.03" stroke="#5A89B1" stroke-width="0.96"/>
<path d="M1069.48 43.4653L42.7579 1070.18" stroke="#5A89B1" stroke-width="0.96"/>
<path d="M1330.4 302.974L303.681 1329.69" stroke="#5A89B1" stroke-width="0.96"/>
<path d="M1199.59 173.573L172.866 1200.29" stroke="#5A89B1" stroke-width="0.96"/>
<path d="M1460.51 433.081L433.788 1459.8" stroke="#5A89B1" stroke-width="0.96"/>
<path d="M1134.53 108.519L107.813 1135.24" stroke="#5A89B1" stroke-width="0.96"/>
<path d="M1395.45 368.027L368.734 1394.75" stroke="#5A89B1" stroke-width="0.96"/>
<path d="M1264.64 238.627L237.92 1265.35" stroke="#5A89B1" stroke-width="0.96"/>
<path d="M1525.56 498.135L498.842 1524.85" stroke="#5A89B1" stroke-width="0.96"/>
<path d="M1072.31 46.2939L45.587 1073.01" stroke="#5A89B1" stroke-width="0.96"/>
<path d="M1333.23 305.802L306.509 1332.52" stroke="#5A89B1" stroke-width="0.96"/>
<path d="M1202.41 176.401L175.694 1203.12" stroke="#5A89B1" stroke-width="0.96"/>
<path d="M1463.34 435.91L436.616 1462.63" stroke="#5A89B1" stroke-width="0.96"/>
<path d="M1137.36 111.348L110.641 1138.07" stroke="#5A89B1" stroke-width="0.96"/>
<path d="M1398.28 370.856L371.563 1397.57" stroke="#5A89B1" stroke-width="0.96"/>
<path d="M1267.47 241.455L240.748 1268.17" stroke="#5A89B1" stroke-width="0.96"/>
<path d="M1528.39 500.963L501.671 1527.68" stroke="#5A89B1" stroke-width="0.96"/>
<path d="M1075.13 49.1221L48.4151 1075.84" stroke="#5A89B1" stroke-width="0.96"/>
<path d="M1336.06 308.63L309.338 1335.35" stroke="#5A89B1" stroke-width="0.96"/>
<path d="M1205.24 179.23L178.523 1205.95" stroke="#5A89B1" stroke-width="0.96"/>
<path d="M1466.16 438.738L439.445 1465.46" stroke="#5A89B1" stroke-width="0.96"/>
<path d="M1140.19 114.176L113.469 1140.9" stroke="#5A89B1" stroke-width="0.96"/>
<path d="M1401.11 373.684L374.392 1400.4" stroke="#5A89B1" stroke-width="0.96"/>
<path d="M1270.3 244.284L243.576 1271" stroke="#5A89B1" stroke-width="0.96"/>
<path d="M1531.22 503.792L504.499 1530.51" stroke="#5A89B1" stroke-width="0.96"/>
<path d="M1077.96 51.9507L51.2432 1078.67" stroke="#5A89B1" stroke-width="0.96"/>
<path d="M1338.89 311.459L312.166 1338.18" stroke="#5A89B1" stroke-width="0.96"/>
<path d="M1208.07 182.058L181.352 1208.78" stroke="#5A89B1" stroke-width="0.96"/>
<path d="M1468.99 441.566L442.274 1468.29" stroke="#5A89B1" stroke-width="0.96"/>
<path d="M1143.02 117.004L116.297 1143.72" stroke="#5A89B1" stroke-width="0.96"/>
<path d="M1403.94 376.513L377.22 1403.23" stroke="#5A89B1" stroke-width="0.96"/>
<path d="M1273.12 247.112L246.405 1273.83" stroke="#5A89B1" stroke-width="0.96"/>
<path d="M1534.05 506.62L507.327 1533.34" stroke="#5A89B1" stroke-width="0.96"/>
<path d="M1080.79 54.7793L54.0723 1081.5" stroke="#5A89B1" stroke-width="0.96"/>
<path d="M1341.71 314.287L314.994 1341.01" stroke="#5A89B1" stroke-width="0.96"/>
<path d="M1210.9 184.887L184.18 1211.61" stroke="#5A89B1" stroke-width="0.96"/>
<path d="M1471.82 444.395L445.102 1471.11" stroke="#5A89B1" stroke-width="0.96"/>
<path d="M1145.85 119.833L119.126 1146.55" stroke="#5A89B1" stroke-width="0.96"/>
<path d="M1406.77 379.341L380.048 1406.06" stroke="#5A89B1" stroke-width="0.96"/>
<path d="M1275.95 249.94L249.233 1276.66" stroke="#5A89B1" stroke-width="0.96"/>
<path d="M1536.88 509.449L510.156 1536.17" stroke="#5A89B1" stroke-width="0.96"/>
<path d="M1086.45 60.436L59.7286 1087.16" stroke="#5A89B1" stroke-width="0.96"/>
<path d="M1347.37 319.944L320.651 1346.66" stroke="#5A89B1" stroke-width="0.96"/>
<path d="M1216.56 190.543L189.837 1217.26" stroke="#5A89B1" stroke-width="0.96"/>
<path d="M1477.48 450.052L450.759 1476.77" stroke="#5A89B1" stroke-width="0.96"/>
<path d="M1151.5 125.49L124.782 1152.21" stroke="#5A89B1" stroke-width="0.96"/>
<path d="M1412.42 384.998L385.705 1411.72" stroke="#5A89B1" stroke-width="0.96"/>
<path d="M1281.61 255.598L254.891 1282.32" stroke="#5A89B1" stroke-width="0.96"/>
<path d="M1542.53 515.105L515.813 1541.82" stroke="#5A89B1" stroke-width="0.96"/>
<path d="M1083.62 57.6074L56.9005 1084.33" stroke="#5A89B1" stroke-width="0.96"/>
<path d="M1344.54 317.116L317.822 1343.83" stroke="#5A89B1" stroke-width="0.96"/>
<path d="M1213.73 187.715L187.008 1214.43" stroke="#5A89B1" stroke-width="0.96"/>
<path d="M1474.65 447.223L447.931 1473.94" stroke="#5A89B1" stroke-width="0.96"/>
<path d="M1148.67 122.661L121.954 1149.38" stroke="#5A89B1" stroke-width="0.96"/>
<path d="M1409.6 382.169L382.877 1408.89" stroke="#5A89B1" stroke-width="0.96"/>
<path d="M1278.78 252.769L252.062 1279.49" stroke="#5A89B1" stroke-width="0.96"/>
<path d="M1539.7 512.277L512.984 1539" stroke="#5A89B1" stroke-width="0.96"/>
<path d="M1089.28 63.2642L62.5577 1089.98" stroke="#5A89B1" stroke-width="0.96"/>
<path d="M1350.2 322.772L323.48 1349.49" stroke="#5A89B1" stroke-width="0.96"/>
<path d="M1219.38 193.372L192.665 1220.09" stroke="#5A89B1" stroke-width="0.96"/>
<path d="M1480.31 452.88L453.587 1479.6" stroke="#5A89B1" stroke-width="0.96"/>
<path d="M1154.33 128.318L127.611 1155.04" stroke="#5A89B1" stroke-width="0.96"/>
<path d="M1415.25 387.826L388.533 1414.55" stroke="#5A89B1" stroke-width="0.96"/>
<path d="M1284.44 258.426L257.719 1285.14" stroke="#5A89B1" stroke-width="0.96"/>
<path d="M1545.36 517.934L518.641 1544.65" stroke="#5A89B1" stroke-width="0.96"/>
<path d="M1548.19 520.763L521.47 1547.48" stroke="#5A89B1" stroke-width="0.96"/>
<path d="M1551.02 523.591L524.298 1550.31" stroke="#5A89B1" stroke-width="0.96"/>
<path d="M1553.85 526.419L527.127 1553.14" stroke="#5A89B1" stroke-width="0.96"/>
<path d="M1556.67 529.248L529.955 1555.97" stroke="#5A89B1" stroke-width="0.96"/>
<path d="M1559.5 532.076L532.783 1558.8" stroke="#5A89B1" stroke-width="0.96"/>
<path d="M1562.33 534.905L535.612 1561.62" stroke="#5A89B1" stroke-width="0.96"/>
<path d="M1565.16 537.733L538.44 1564.45" stroke="#5A89B1" stroke-width="0.96"/>
<path d="M1567.99 540.562L541.269 1567.28" stroke="#5A89B1" stroke-width="0.96"/>
<path d="M1570.82 543.39L544.097 1570.11" stroke="#5A89B1" stroke-width="0.96"/>
<path d="M1573.64 546.218L546.925 1572.94" stroke="#5A89B1" stroke-width="0.96"/>
<path d="M1576.47 549.047L549.754 1575.77" stroke="#5A89B1" stroke-width="0.96"/>
<path d="M1579.3 551.875L552.582 1578.59" stroke="#5A89B1" stroke-width="0.96"/>
<path d="M1582.13 554.704L555.411 1581.42" stroke="#5A89B1" stroke-width="0.96"/>
<path d="M1584.96 557.532L558.239 1584.25" stroke="#5A89B1" stroke-width="0.96"/>
<path d="M1587.79 560.36L561.067 1587.08" stroke="#5A89B1" stroke-width="0.96"/>
<path d="M1590.62 563.189L563.896 1589.91" stroke="#5A89B1" stroke-width="0.96"/>
<path d="M1593.44 566.017L566.724 1592.74" stroke="#5A89B1" stroke-width="0.96"/>
<path d="M1596.27 568.846L569.553 1595.56" stroke="#5A89B1" stroke-width="0.96"/>
<path d="M1599.1 571.674L572.381 1598.39" stroke="#5A89B1" stroke-width="0.96"/>
<path d="M1601.93 574.502L575.21 1601.22" stroke="#5A89B1" stroke-width="0.96"/>
<path d="M1604.76 577.331L578.038 1604.05" stroke="#5A89B1" stroke-width="0.96"/>
<path d="M1607.59 580.16L580.867 1606.88" stroke="#5A89B1" stroke-width="0.96"/>
<path d="M1610.41 582.988L583.695 1609.71" stroke="#5A89B1" stroke-width="0.96"/>
<path d="M1613.24 585.816L586.524 1612.54" stroke="#5A89B1" stroke-width="0.96"/>
<path d="M1616.07 588.645L589.352 1615.36" stroke="#5A89B1" stroke-width="0.96"/>
<path d="M1618.9 591.473L592.18 1618.19" stroke="#5A89B1" stroke-width="0.96"/>
<path d="M1621.73 594.302L595.009 1621.02" stroke="#5A89B1" stroke-width="0.96"/>
<path d="M1624.56 597.13L597.837 1623.85" stroke="#5A89B1" stroke-width="0.96"/>
<path d="M1627.38 599.958L600.666 1626.68" stroke="#5A89B1" stroke-width="0.96"/>
<path d="M1630.21 602.787L603.494 1629.51" stroke="#5A89B1" stroke-width="0.96"/>
<path d="M1633.04 605.615L606.322 1632.33" stroke="#5A89B1" stroke-width="0.96"/>
<path d="M1635.87 608.444L609.151 1635.16" stroke="#5A89B1" stroke-width="0.96"/>
<path d="M1638.7 611.272L611.979 1637.99" stroke="#5A89B1" stroke-width="0.96"/>
<path d="M1641.53 614.101L614.808 1640.82" stroke="#5A89B1" stroke-width="0.96"/>
<path d="M1644.36 616.929L617.636 1643.65" stroke="#5A89B1" stroke-width="0.96"/>
<path d="M1647.18 619.757L620.464 1646.48" stroke="#5A89B1" stroke-width="0.96"/>
<path d="M1650.01 622.586L623.293 1649.3" stroke="#5A89B1" stroke-width="0.96"/>
<path d="M1652.84 625.414L626.121 1652.13" stroke="#5A89B1" stroke-width="0.96"/>
<path d="M1655.67 628.243L628.95 1654.96" stroke="#5A89B1" stroke-width="0.96"/>
<path d="M1658.5 631.071L631.778 1657.79" stroke="#5A89B1" stroke-width="0.96"/>
<path d="M1661.33 633.899L634.607 1660.62" stroke="#5A89B1" stroke-width="0.96"/>
<path d="M1664.15 636.728L637.435 1663.45" stroke="#5A89B1" stroke-width="0.96"/>
<path d="M1666.98 639.557L640.264 1666.28" stroke="#5A89B1" stroke-width="0.96"/>
<path d="M1669.81 642.385L643.092 1669.1" stroke="#5A89B1" stroke-width="0.96"/>
<path d="M1672.64 645.213L645.92 1671.93" stroke="#5A89B1" stroke-width="0.96"/>
<path d="M1675.47 648.042L648.749 1674.76" stroke="#5A89B1" stroke-width="0.96"/>
<path d="M1678.3 650.87L651.577 1677.59" stroke="#5A89B1" stroke-width="0.96"/>
<path d="M1681.12 653.699L654.406 1680.42" stroke="#5A89B1" stroke-width="0.96"/>
<path d="M1683.95 656.527L657.234 1683.25" stroke="#5A89B1" stroke-width="0.96"/>
<path d="M1686.78 659.355L660.063 1686.07" stroke="#5A89B1" stroke-width="0.96"/>
<path d="M1689.61 662.184L662.891 1688.9" stroke="#5A89B1" stroke-width="0.96"/>
<path d="M1692.44 665.012L665.719 1691.73" stroke="#5A89B1" stroke-width="0.96"/>
<path d="M1695.27 667.841L668.548 1694.56" stroke="#5A89B1" stroke-width="0.96"/>
<path d="M1698.1 670.669L671.376 1697.39" stroke="#5A89B1" stroke-width="0.96"/>
<path d="M1700.92 673.498L674.205 1700.22" stroke="#5A89B1" stroke-width="0.96"/>
<path d="M1703.75 676.326L677.033 1703.05" stroke="#5A89B1" stroke-width="0.96"/>
<path d="M1706.58 679.154L679.861 1705.87" stroke="#5A89B1" stroke-width="0.96"/>
<path d="M1709.41 681.983L682.69 1708.7" stroke="#5A89B1" stroke-width="0.96"/>
<path d="M1712.24 684.811L685.518 1711.53" stroke="#5A89B1" stroke-width="0.96"/>
<path d="M1715.07 687.64L688.347 1714.36" stroke="#5A89B1" stroke-width="0.96"/>
<path d="M1717.89 690.468L691.175 1717.19" stroke="#5A89B1" stroke-width="0.96"/>
<path d="M1720.72 693.296L694.003 1720.02" stroke="#5A89B1" stroke-width="0.96"/>
<path d="M1723.55 696.125L696.832 1722.84" stroke="#5A89B1" stroke-width="0.96"/>
<path d="M1726.38 698.954L699.661 1725.67" stroke="#5A89B1" stroke-width="0.96"/>
<path d="M1729.21 701.782L702.489 1728.5" stroke="#5A89B1" stroke-width="0.96"/>
<path d="M1732.04 704.61L705.317 1731.33" stroke="#5A89B1" stroke-width="0.96"/>
<path d="M1734.86 707.438L708.146 1734.16" stroke="#5A89B1" stroke-width="0.96"/>
<path d="M1737.69 710.267L710.974 1736.99" stroke="#5A89B1" stroke-width="0.96"/>
<path d="M1740.52 713.096L713.803 1739.81" stroke="#5A89B1" stroke-width="0.96"/>
<path d="M1743.35 715.924L716.631 1742.64" stroke="#5A89B1" stroke-width="0.96"/>
<path d="M1746.18 718.752L719.46 1745.47" stroke="#5A89B1" stroke-width="0.96"/>
<path d="M1749.01 721.581L722.288 1748.3" stroke="#5A89B1" stroke-width="0.96"/>
<path d="M1751.84 724.409L725.116 1751.13" stroke="#5A89B1" stroke-width="0.96"/>
<path d="M1754.66 727.238L727.945 1753.96" stroke="#5A89B1" stroke-width="0.96"/>
<path d="M1757.49 730.066L730.773 1756.78" stroke="#5A89B1" stroke-width="0.96"/>
<path d="M1760.32 732.895L733.602 1759.61" stroke="#5A89B1" stroke-width="0.96"/>
<path d="M1763.15 735.723L736.43 1762.44" stroke="#5A89B1" stroke-width="0.96"/>
<path d="M1765.98 738.551L739.258 1765.27" stroke="#5A89B1" stroke-width="0.96"/>
<path d="M1768.81 741.38L742.087 1768.1" stroke="#5A89B1" stroke-width="0.96"/>
<path d="M1771.63 744.208L744.915 1770.93" stroke="#5A89B1" stroke-width="0.96"/>
<path d="M1774.46 747.037L747.744 1773.76" stroke="#5A89B1" stroke-width="0.96"/>
<path d="M1777.29 749.865L750.572 1776.58" stroke="#5A89B1" stroke-width="0.96"/>
<path d="M1780.12 752.693L753.4 1779.41" stroke="#5A89B1" stroke-width="0.96"/>
<path d="M1782.95 755.522L756.229 1782.24" stroke="#5A89B1" stroke-width="0.96"/>
<path d="M1785.78 758.351L759.058 1785.07" stroke="#5A89B1" stroke-width="0.96"/>
<path d="M1788.6 761.179L761.886 1787.9" stroke="#5A89B1" stroke-width="0.96"/>
<path d="M1791.43 764.007L764.714 1790.73" stroke="#5A89B1" stroke-width="0.96"/>
<path d="M1794.26 766.835L767.543 1793.55" stroke="#5A89B1" stroke-width="0.96"/>
<path d="M1797.09 769.664L770.371 1796.38" stroke="#5A89B1" stroke-width="0.96"/>
<path d="M1799.92 772.493L773.2 1799.21" stroke="#5A89B1" stroke-width="0.96"/>
<path d="M1802.75 775.321L776.028 1802.04" stroke="#5A89B1" stroke-width="0.96"/>
<path d="M1805.58 778.149L778.857 1804.87" stroke="#5A89B1" stroke-width="0.96"/>
<path d="M1808.78 781.353L782.06 1808.07" stroke="#5A89B1" stroke-width="0.96"/>
<path d="M1811.98 784.557L785.264 1811.28" stroke="#5A89B1" stroke-width="0.96"/>
<path d="M1815.19 787.76L788.467 1814.48" stroke="#5A89B1" stroke-width="0.96"/>
<path d="M1818.39 790.964L791.671 1817.68" stroke="#5A89B1" stroke-width="0.96"/>
<path d="M1821.59 794.167L794.875 1820.89" stroke="#5A89B1" stroke-width="0.96"/>
<path d="M1824.8 797.371L798.078 1824.09" stroke="#5A89B1" stroke-width="0.96"/>
<path d="M1828 800.575L801.282 1827.29" stroke="#5A89B1" stroke-width="0.96"/>
<path d="M1831.2 803.778L804.485 1830.5" stroke="#5A89B1" stroke-width="0.96"/>
<path d="M1834.41 806.982L807.689 1833.7" stroke="#5A89B1" stroke-width="0.96"/>
<path d="M1837.61 810.186L810.893 1836.91" stroke="#5A89B1" stroke-width="0.96"/>
<path d="M1840.82 813.39L814.097 1840.11" stroke="#5A89B1" stroke-width="0.96"/>
<path d="M1844.02 816.593L817.3 1843.31" stroke="#5A89B1" stroke-width="0.96"/>
<path d="M1847.22 819.797L820.504 1846.52" stroke="#5A89B1" stroke-width="0.96"/>
<path d="M1850.43 823L823.708 1849.72" stroke="#5A89B1" stroke-width="0.96"/>
<path d="M1853.63 826.204L826.911 1852.92" stroke="#5A89B1" stroke-width="0.96"/>
<path d="M1856.83 829.408L830.115 1856.13" stroke="#5A89B1" stroke-width="0.96"/>
<path d="M1860.04 832.611L833.318 1859.33" stroke="#5A89B1" stroke-width="0.96"/>
<path d="M1863.24 835.815L836.522 1862.53" stroke="#5A89B1" stroke-width="0.96"/>
<path d="M1866.44 839.019L839.726 1865.74" stroke="#5A89B1" stroke-width="0.96"/>
<path d="M1869.65 842.222L842.929 1868.94" stroke="#5A89B1" stroke-width="0.96"/>
<path d="M1872.85 845.426L846.133 1872.14" stroke="#5A89B1" stroke-width="0.96"/>
<path d="M1876.06 848.629L849.336 1875.35" stroke="#5A89B1" stroke-width="0.96"/>
<path d="M1879.26 851.833L852.54 1878.55" stroke="#5A89B1" stroke-width="0.96"/>
<path d="M1882.46 855.037L855.744 1881.76" stroke="#5A89B1" stroke-width="0.96"/>
<path d="M1885.67 858.241L858.948 1884.96" stroke="#5A89B1" stroke-width="0.96"/>
<path d="M1888.87 861.444L862.151 1888.16" stroke="#5A89B1" stroke-width="0.96"/>
<path d="M1892.07 864.648L865.355 1891.37" stroke="#5A89B1" stroke-width="0.96"/>
<path d="M1895.28 867.852L868.559 1894.57" stroke="#5A89B1" stroke-width="0.96"/>
<path d="M1898.48 871.055L871.762 1897.77" stroke="#5A89B1" stroke-width="0.96"/>
<path d="M1901.68 874.259L874.966 1900.98" stroke="#5A89B1" stroke-width="0.96"/>
<path d="M1904.89 877.462L878.17 1904.18" stroke="#5A89B1" stroke-width="0.96"/>
<path d="M1908.09 880.666L881.373 1907.39" stroke="#5A89B1" stroke-width="0.96"/>
<path d="M1911.3 883.87L884.577 1910.59" stroke="#5A89B1" stroke-width="0.96"/>
<path d="M1914.5 887.073L887.78 1913.79" stroke="#5A89B1" stroke-width="0.96"/>
<path d="M1917.7 890.277L890.984 1917" stroke="#5A89B1" stroke-width="0.96"/>
<path d="M1920.91 893.48L894.188 1920.2" stroke="#5A89B1" stroke-width="0.96"/>
<path d="M1924.11 896.684L897.391 1923.4" stroke="#5A89B1" stroke-width="0.96"/>
<path d="M1927.31 899.888L900.595 1926.61" stroke="#5A89B1" stroke-width="0.96"/>
<path d="M1930.52 903.091L903.798 1929.81" stroke="#5A89B1" stroke-width="0.96"/>
<path d="M1933.72 906.295L907.003 1933.01" stroke="#5A89B1" stroke-width="0.96"/>
<path d="M1936.93 909.499L910.206 1936.22" stroke="#5A89B1" stroke-width="0.96"/>
<path d="M1940.13 912.703L913.41 1939.42" stroke="#5A89B1" stroke-width="0.96"/>
<path d="M1943.33 915.906L916.613 1942.63" stroke="#5A89B1" stroke-width="0.96"/>
<path d="M1946.54 919.11L919.817 1945.83" stroke="#5A89B1" stroke-width="0.96"/>
<path d="M1949.74 922.313L923.021 1949.03" stroke="#5A89B1" stroke-width="0.96"/>
<path d="M1952.94 925.517L926.224 1952.24" stroke="#5A89B1" stroke-width="0.96"/>
<path d="M1956.15 928.721L929.428 1955.44" stroke="#5A89B1" stroke-width="0.96"/>
<path d="M1959.35 931.924L932.631 1958.64" stroke="#5A89B1" stroke-width="0.96"/>
<path d="M1962.55 935.128L935.835 1961.85" stroke="#5A89B1" stroke-width="0.96"/>
<path d="M1965.76 938.332L939.039 1965.05" stroke="#5A89B1" stroke-width="0.96"/>
<path d="M1968.96 941.535L942.242 1968.25" stroke="#5A89B1" stroke-width="0.96"/>
<path d="M1972.16 944.739L945.446 1971.46" stroke="#5A89B1" stroke-width="0.96"/>
<path d="M1975.37 947.942L948.649 1974.66" stroke="#5A89B1" stroke-width="0.96"/>
<path d="M1978.57 951.146L951.853 1977.87" stroke="#5A89B1" stroke-width="0.96"/>
<path d="M1981.78 954.35L955.057 1981.07" stroke="#5A89B1" stroke-width="0.96"/>
<path d="M1984.98 957.554L958.261 1984.27" stroke="#5A89B1" stroke-width="0.96"/>
<path d="M1988.18 960.757L961.464 1987.48" stroke="#5A89B1" stroke-width="0.96"/>
<path d="M1991.39 963.961L964.668 1990.68" stroke="#5A89B1" stroke-width="0.96"/>
<path d="M1994.59 967.165L967.872 1993.88" stroke="#5A89B1" stroke-width="0.96"/>
<path d="M1997.79 970.368L971.075 1997.09" stroke="#5A89B1" stroke-width="0.96"/>
<path d="M2001 973.572L974.279 2000.29" stroke="#5A89B1" stroke-width="0.96"/>
<path d="M2004.2 976.775L977.482 2003.49" stroke="#5A89B1" stroke-width="0.96"/>
<path d="M2007.41 979.979L980.686 2006.7" stroke="#5A89B1" stroke-width="0.96"/>
<path d="M2010.61 983.183L983.89 2009.9" stroke="#5A89B1" stroke-width="0.96"/>
<path d="M2013.81 986.386L987.093 2013.11" stroke="#5A89B1" stroke-width="0.96"/>
<path d="M2017.02 989.59L990.297 2016.31" stroke="#5A89B1" stroke-width="0.96"/>
<path d="M2020.22 992.793L993.501 2019.51" stroke="#5A89B1" stroke-width="0.96"/>
<path d="M2023.42 995.997L996.704 2022.72" stroke="#5A89B1" stroke-width="0.96"/>
<path d="M2026.63 999.201L999.908 2025.92" stroke="#5A89B1" stroke-width="0.96"/>
<path d="M2029.83 1002.4L1003.11 2029.12" stroke="#5A89B1" stroke-width="0.96"/>
<path d="M2033.03 1005.61L1006.32 2032.33" stroke="#5A89B1" stroke-width="0.96"/>
<path d="M2036.24 1008.81L1009.52 2035.53" stroke="#5A89B1" stroke-width="0.96"/>
<path d="M2039.44 1012.02L1012.72 2038.73" stroke="#5A89B1" stroke-width="0.96"/>
<path d="M2042.65 1015.22L1015.93 2041.94" stroke="#5A89B1" stroke-width="0.96"/>
<path d="M2045.85 1018.42L1019.13 2045.14" stroke="#5A89B1" stroke-width="0.96"/>
<path d="M2049.05 1021.63L1022.33 2048.35" stroke="#5A89B1" stroke-width="0.96"/>
<path d="M2052.26 1024.83L1025.54 2051.55" stroke="#5A89B1" stroke-width="0.96"/>
<path d="M2055.46 1028.03L1028.74 2054.75" stroke="#5A89B1" stroke-width="0.96"/>
<path d="M2058.66 1031.24L1031.94 2057.96" stroke="#5A89B1" stroke-width="0.96"/>
<path d="M2061.87 1034.44L1035.15 2061.16" stroke="#5A89B1" stroke-width="0.96"/>
</g>
<defs>
<clipPath id="clip0_149_1832">
<rect width="1452" height="1453" fill="white" transform="translate(1027.43) rotate(45)"/>
</clipPath>
</defs>
</svg>
